<svg width="776" height="134" viewBox="0 0 776 134" fill="none" xmlns="http://www.w3.org/2000/svg">
<path d="M7.7 20.24C6.28667 20.24 5.07333 19.94 4.06 19.34C3.04667 18.7267 2.26667 17.88 1.72 16.8C1.17333 15.7067 0.9 14.4467 0.9 13.02C0.9 11.5933 1.17333 10.3333 1.72 9.24C2.26667 8.14667 3.04667 7.29333 4.06 6.68C5.07333 6.06667 6.28667 5.76 7.7 5.76C9.38 5.76 10.7533 6.18 11.82 7.02C12.9 7.84667 13.5733 9.01333 13.84 10.52H11.02C10.8467 9.76 10.4733 9.16667 9.9 8.74C9.34 8.3 8.59333 8.08 7.66 8.08C6.36667 8.08 5.35333 8.52 4.62 9.4C3.88667 10.28 3.52 11.4867 3.52 13.02C3.52 14.5533 3.88667 15.76 4.62 16.64C5.35333 17.5067 6.36667 17.94 7.66 17.94C8.59333 17.94 9.34 17.74 9.9 17.34C10.4733 16.9267 10.8467 16.36 11.02 15.64H13.84C13.5733 17.08 12.9 18.2067 11.82 19.02C10.7533 19.8333 9.38 20.24 7.7 20.24ZM19.4661 20.24C18.6128 20.24 17.9128 20.1067 17.3661 19.84C16.8194 19.56 16.4128 19.1933 16.1461 18.74C15.8794 18.2867 15.7461 17.7867 15.7461 17.24C15.7461 16.32 16.1061 15.5733 16.8261 15C17.5461 14.4267 18.6261 14.14 20.0661 14.14H22.5861V13.9C22.5861 13.22 22.3928 12.72 22.0061 12.4C21.6194 12.08 21.1394 11.92 20.5661 11.92C20.0461 11.92 19.5928 12.0467 19.2061 12.3C18.8194 12.54 18.5794 12.9 18.4861 13.38H15.9861C16.0528 12.66 16.2928 12.0333 16.7061 11.5C17.1328 10.9667 17.6794 10.56 18.3461 10.28C19.0128 9.98667 19.7594 9.84 20.5861 9.84C21.9994 9.84 23.1128 10.1933 23.9261 10.9C24.7394 11.6067 25.1461 12.6067 25.1461 13.9V20H22.9661L22.7261 18.4C22.4328 18.9333 22.0194 19.3733 21.4861 19.72C20.9661 20.0667 20.2928 20.24 19.4661 20.24ZM20.0461 18.24C20.7794 18.24 21.3461 18 21.7461 17.52C22.1594 17.04 22.4194 16.4467 22.5261 15.74H20.3461C19.6661 15.74 19.1794 15.8667 18.8861 16.12C18.5928 16.36 18.4461 16.66 18.4461 17.02C18.4461 17.4067 18.5928 17.7067 18.8861 17.92C19.1794 18.1333 19.5661 18.24 20.0461 18.24ZM27.5891 20V5.6H30.1491V20H27.5891ZM32.7648 20V5.6H35.3248V20H32.7648ZM48.1663 20.24C47.1396 20.24 46.2129 20.04 45.3863 19.64C44.5596 19.2267 43.8996 18.6067 43.4063 17.78C42.9263 16.9533 42.6863 15.9067 42.6863 14.64V6H45.2463V14.66C45.2463 15.7533 45.5063 16.5667 46.0263 17.1C46.5596 17.6333 47.2929 17.9 48.2263 17.9C49.1463 17.9 49.8729 17.6333 50.4063 17.1C50.9396 16.5667 51.2063 15.7533 51.2063 14.66V6H53.7663V14.64C53.7663 15.9067 53.5129 16.9533 53.0063 17.78C52.4996 18.6067 51.8196 19.2267 50.9663 19.64C50.1263 20.04 49.1929 20.24 48.1663 20.24ZM60.4195 20.24C59.5395 20.24 58.7662 20.1 58.0995 19.82C57.4329 19.5267 56.8995 19.1267 56.4995 18.62C56.0995 18.1133 55.8595 17.5267 55.7795 16.86H58.3595C58.4395 17.2467 58.6529 17.58 58.9995 17.86C59.3595 18.1267 59.8195 18.26 60.3795 18.26C60.9395 18.26 61.3462 18.1467 61.5995 17.92C61.8662 17.6933 61.9995 17.4333 61.9995 17.14C61.9995 16.7133 61.8129 16.4267 61.4395 16.28C61.0662 16.12 60.5462 15.9667 59.8795 15.82C59.4529 15.7267 59.0195 15.6133 58.5795 15.48C58.1395 15.3467 57.7329 15.18 57.3595 14.98C56.9995 14.7667 56.7062 14.5 56.4795 14.18C56.2529 13.8467 56.1395 13.44 56.1395 12.96C56.1395 12.08 56.4862 11.34 57.1795 10.74C57.8862 10.14 58.8729 9.84 60.1395 9.84C61.3129 9.84 62.2462 10.1133 62.9395 10.66C63.6462 11.2067 64.0662 11.96 64.1995 12.92H61.7795C61.6329 12.1867 61.0795 11.82 60.1195 11.82C59.6395 11.82 59.2662 11.9133 58.9995 12.1C58.7462 12.2867 58.6195 12.52 58.6195 12.8C58.6195 13.0933 58.8129 13.3267 59.1995 13.5C59.5862 13.6733 60.0995 13.8333 60.7395 13.98C61.4329 14.14 62.0662 14.32 62.6395 14.52C63.2262 14.7067 63.6929 14.9933 64.0395 15.38C64.3862 15.7533 64.5595 16.2933 64.5595 17C64.5729 17.6133 64.4129 18.1667 64.0795 18.66C63.7462 19.1533 63.2662 19.54 62.6395 19.82C62.0129 20.1 61.2729 20.24 60.4195 20.24ZM67.9273 20.14C67.4607 20.14 67.074 19.9933 66.7673 19.7C66.474 19.4067 66.3273 19.0533 66.3273 18.64C66.3273 18.2133 66.474 17.8533 66.7673 17.56C67.074 17.2667 67.4607 17.12 67.9273 17.12C68.394 17.12 68.774 17.2667 69.0673 17.56C69.374 17.8533 69.5273 18.2133 69.5273 18.64C69.5273 19.0533 69.374 19.4067 69.0673 19.7C68.774 19.9933 68.394 20.14 67.9273 20.14ZM67.9273 12.86C67.4607 12.86 67.074 12.7133 66.7673 12.42C66.474 12.1267 66.3273 11.7733 66.3273 11.36C66.3273 10.9333 66.474 10.5733 66.7673 10.28C67.074 9.98667 67.4607 9.84 67.9273 9.84C68.394 9.84 68.774 9.98667 69.0673 10.28C69.374 10.5733 69.5273 10.9333 69.5273 11.36C69.5273 11.7733 69.374 12.1267 69.0673 12.42C68.774 12.7133 68.394 12.86 67.9273 12.86Z" fill="#2C2F24"/>
<path d="M1.344 67.336V64.768H5.856V60.616H8.472V64.768H12.96V67.336H8.472V71.488H5.856V67.336H1.344ZM17.0563 73V59.704L14.2963 60.352V58L18.3523 56.2H20.2483V73H17.0563ZM22.4497 67.336V64.768H32.5057V67.336H22.4497ZM34.314 73V70.768C35.338 69.92 36.33 69.08 37.29 68.248C38.266 67.416 39.13 66.592 39.882 65.776C40.65 64.96 41.258 64.168 41.706 63.4C42.17 62.616 42.402 61.856 42.402 61.12C42.402 60.432 42.21 59.824 41.826 59.296C41.458 58.768 40.842 58.504 39.978 58.504C39.098 58.504 38.434 58.792 37.986 59.368C37.538 59.944 37.314 60.64 37.314 61.456H34.338C34.37 60.224 34.642 59.2 35.154 58.384C35.666 57.552 36.346 56.936 37.194 56.536C38.042 56.12 38.994 55.912 40.05 55.912C41.762 55.912 43.09 56.384 44.034 57.328C44.994 58.256 45.474 59.464 45.474 60.952C45.474 61.88 45.258 62.784 44.826 63.664C44.41 64.544 43.858 65.392 43.17 66.208C42.482 67.024 41.738 67.792 40.938 68.512C40.138 69.216 39.362 69.872 38.61 70.48H45.882V73H34.314ZM53.2089 73.288C52.1049 73.288 51.1049 73.096 50.2089 72.712C49.3129 72.312 48.5929 71.704 48.0489 70.888C47.5049 70.072 47.2169 69.048 47.1849 67.816H50.2089C50.2249 68.632 50.4889 69.32 51.0009 69.88C51.5289 70.424 52.2649 70.696 53.2089 70.696C54.1049 70.696 54.7929 70.448 55.2729 69.952C55.7529 69.456 55.9929 68.832 55.9929 68.08C55.9929 67.2 55.6729 66.536 55.0329 66.088C54.4089 65.624 53.6009 65.392 52.6089 65.392H51.3609V62.872H52.6329C53.4489 62.872 54.1289 62.68 54.6729 62.296C55.2169 61.912 55.4889 61.344 55.4889 60.592C55.4889 59.968 55.2809 59.472 54.8649 59.104C54.4649 58.72 53.9049 58.528 53.1849 58.528C52.4009 58.528 51.7849 58.76 51.3369 59.224C50.9049 59.688 50.6649 60.256 50.6169 60.928H47.6169C47.6809 59.376 48.2169 58.152 49.2249 57.256C50.2489 56.36 51.5689 55.912 53.1849 55.912C54.3369 55.912 55.3049 56.12 56.0889 56.536C56.8889 56.936 57.4889 57.472 57.8889 58.144C58.3049 58.816 58.5129 59.56 58.5129 60.376C58.5129 61.32 58.2489 62.12 57.7209 62.776C57.2089 63.416 56.5689 63.848 55.8009 64.072C56.7449 64.264 57.5129 64.728 58.1049 65.464C58.6969 66.184 58.9929 67.096 58.9929 68.2C58.9929 69.128 58.7689 69.976 58.3209 70.744C57.8729 71.512 57.2169 72.128 56.3529 72.592C55.5049 73.056 54.4569 73.288 53.2089 73.288ZM68.9698 73V69.88H60.6898V67.432L68.5618 56.2H72.0418V67.216H74.2498V69.88H72.0418V73H68.9698ZM63.9778 67.216H69.1618V59.584L63.9778 67.216ZM75.6088 67.336V64.768H85.6648V67.336H75.6088ZM93.9051 73.288C92.6731 73.288 91.6091 73.072 90.7131 72.64C89.8331 72.208 89.1371 71.616 88.6251 70.864C88.1291 70.096 87.8411 69.232 87.7611 68.272H90.7611C90.9051 68.96 91.2571 69.536 91.8171 70C92.3771 70.448 93.0731 70.672 93.9051 70.672C94.8011 70.672 95.5291 70.344 96.0891 69.688C96.6651 69.032 96.9531 68.216 96.9531 67.24C96.9531 66.232 96.6651 65.432 96.0891 64.84C95.5291 64.248 94.8171 63.952 93.9531 63.952C93.2331 63.952 92.6091 64.128 92.0811 64.48C91.5531 64.832 91.1771 65.272 90.9531 65.8H88.0011L89.4411 56.2H98.7531V58.888H91.7451L90.9771 62.776C91.3291 62.392 91.8091 62.08 92.4171 61.84C93.0251 61.584 93.7051 61.456 94.4571 61.456C95.6571 61.456 96.6571 61.728 97.4571 62.272C98.2571 62.8 98.8651 63.504 99.2811 64.384C99.6971 65.248 99.9051 66.192 99.9051 67.216C99.9051 68.384 99.6491 69.424 99.1371 70.336C98.6411 71.248 97.9371 71.968 97.0251 72.496C96.1291 73.024 95.0891 73.288 93.9051 73.288ZM108.356 73.288C107.092 73.288 106.028 73.056 105.164 72.592C104.3 72.128 103.604 71.504 103.076 70.72C102.548 69.936 102.164 69.064 101.924 68.104C101.7 67.144 101.588 66.16 101.588 65.152C101.588 63.28 101.852 61.656 102.38 60.28C102.908 58.888 103.668 57.816 104.66 57.064C105.652 56.296 106.852 55.912 108.26 55.912C109.412 55.912 110.388 56.144 111.188 56.608C112.004 57.056 112.636 57.648 113.084 58.384C113.532 59.12 113.796 59.912 113.876 60.76H111.02C110.876 60.024 110.564 59.456 110.084 59.056C109.604 58.656 108.988 58.456 108.236 58.456C107.164 58.456 106.3 58.952 105.644 59.944C104.988 60.92 104.636 62.416 104.588 64.432C104.972 63.776 105.548 63.232 106.316 62.8C107.084 62.368 107.94 62.152 108.884 62.152C109.812 62.152 110.684 62.376 111.5 62.824C112.316 63.272 112.972 63.904 113.468 64.72C113.98 65.536 114.236 66.496 114.236 67.6C114.236 68.608 113.988 69.544 113.492 70.408C113.012 71.272 112.324 71.968 111.428 72.496C110.548 73.024 109.524 73.288 108.356 73.288ZM108.188 70.648C109.084 70.648 109.82 70.376 110.396 69.832C110.988 69.272 111.284 68.568 111.284 67.72C111.284 66.824 110.988 66.104 110.396 65.56C109.804 65.016 109.052 64.744 108.14 64.744C107.548 64.744 107.012 64.88 106.532 65.152C106.068 65.408 105.7 65.76 105.428 66.208C105.156 66.64 105.02 67.128 105.02 67.672C105.02 68.536 105.316 69.248 105.908 69.808C106.516 70.368 107.276 70.648 108.188 70.648ZM117.19 73L123.526 58.816H115.246V56.2H126.694V58.384L120.382 73H117.19ZM127.596 67.336V64.768H137.652V67.336H127.596ZM145.796 73.288C144.644 73.288 143.604 73.088 142.676 72.688C141.748 72.272 141.004 71.688 140.444 70.936C139.9 70.184 139.628 69.312 139.628 68.32C139.628 67.296 139.892 66.4 140.42 65.632C140.964 64.864 141.676 64.312 142.556 63.976C141.788 63.64 141.18 63.16 140.732 62.536C140.284 61.896 140.06 61.184 140.06 60.4C140.06 59.6 140.276 58.864 140.708 58.192C141.14 57.504 141.78 56.952 142.628 56.536C143.492 56.12 144.548 55.912 145.796 55.912C147.044 55.912 148.092 56.12 148.94 56.536C149.788 56.952 150.428 57.504 150.86 58.192C151.292 58.864 151.508 59.6 151.508 60.4C151.508 61.168 151.276 61.88 150.812 62.536C150.364 63.176 149.764 63.656 149.012 63.976C149.908 64.312 150.62 64.864 151.148 65.632C151.676 66.4 151.94 67.296 151.94 68.32C151.94 69.312 151.668 70.184 151.124 70.936C150.58 71.688 149.836 72.272 148.892 72.688C147.964 73.088 146.932 73.288 145.796 73.288ZM145.796 63.064C146.628 63.064 147.284 62.848 147.764 62.416C148.244 61.984 148.484 61.432 148.484 60.76C148.484 60.024 148.244 59.448 147.764 59.032C147.3 58.616 146.644 58.408 145.796 58.408C144.932 58.408 144.268 58.616 143.804 59.032C143.34 59.448 143.108 60.024 143.108 60.76C143.108 61.448 143.34 62.008 143.804 62.44C144.284 62.856 144.948 63.064 145.796 63.064ZM145.796 70.72C146.82 70.72 147.596 70.472 148.124 69.976C148.652 69.464 148.916 68.824 148.916 68.056C148.916 67.208 148.636 66.544 148.076 66.064C147.532 65.584 146.772 65.344 145.796 65.344C144.82 65.344 144.044 65.584 143.468 66.064C142.908 66.544 142.628 67.208 142.628 68.056C142.628 68.824 142.892 69.464 143.42 69.976C143.964 70.472 144.756 70.72 145.796 70.72ZM159.392 73.288C158.224 73.288 157.24 73.064 156.44 72.616C155.64 72.152 155.016 71.552 154.568 70.816C154.12 70.08 153.856 69.288 153.776 68.44H156.632C156.76 69.176 157.064 69.744 157.544 70.144C158.04 70.544 158.664 70.744 159.416 70.744C160.488 70.744 161.352 70.256 162.008 69.28C162.664 68.288 163.016 66.784 163.064 64.768C162.68 65.424 162.096 65.968 161.312 66.4C160.544 66.832 159.696 67.048 158.768 67.048C157.84 67.048 156.968 66.824 156.152 66.376C155.336 65.928 154.672 65.296 154.16 64.48C153.648 63.664 153.392 62.704 153.392 61.6C153.392 60.592 153.64 59.656 154.136 58.792C154.632 57.928 155.32 57.232 156.2 56.704C157.08 56.176 158.112 55.912 159.296 55.912C160.56 55.912 161.624 56.144 162.488 56.608C163.352 57.072 164.04 57.696 164.552 58.48C165.08 59.264 165.456 60.136 165.68 61.096C165.92 62.056 166.04 63.04 166.04 64.048C166.04 65.92 165.776 67.552 165.248 68.944C164.736 70.32 163.976 71.392 162.968 72.16C161.976 72.912 160.784 73.288 159.392 73.288ZM159.488 64.456C160.08 64.456 160.616 64.328 161.096 64.072C161.576 63.8 161.952 63.448 162.224 63.016C162.496 62.568 162.632 62.072 162.632 61.528C162.632 60.664 162.328 59.952 161.72 59.392C161.128 58.832 160.376 58.552 159.464 58.552C158.568 58.552 157.824 58.832 157.232 59.392C156.64 59.936 156.344 60.632 156.344 61.48C156.344 62.376 156.64 63.096 157.232 63.64C157.824 64.184 158.576 64.456 159.488 64.456ZM175.035 73.288C173.483 73.288 172.155 72.928 171.051 72.208C169.947 71.472 169.091 70.456 168.483 69.16C167.891 67.848 167.595 66.328 167.595 64.6C167.595 62.888 167.891 61.376 168.483 60.064C169.091 58.752 169.947 57.736 171.051 57.016C172.155 56.28 173.483 55.912 175.035 55.912C176.587 55.912 177.915 56.28 179.019 57.016C180.123 57.736 180.971 58.752 181.563 60.064C182.171 61.376 182.475 62.888 182.475 64.6C182.475 66.328 182.171 67.848 181.563 69.16C180.971 70.456 180.123 71.472 179.019 72.208C177.915 72.928 176.587 73.288 175.035 73.288ZM175.035 70.528C176.299 70.528 177.331 70 178.131 68.944C178.931 67.888 179.331 66.44 179.331 64.6C179.331 62.76 178.931 61.312 178.131 60.256C177.331 59.2 176.299 58.672 175.035 58.672C173.755 58.672 172.715 59.2 171.915 60.256C171.131 61.312 170.739 62.76 170.739 64.6C170.739 66.44 171.131 67.888 171.915 68.944C172.715 70 173.755 70.528 175.035 70.528ZM191.354 73.288C189.802 73.288 188.474 72.928 187.37 72.208C186.266 71.472 185.41 70.456 184.802 69.16C184.21 67.848 183.914 66.328 183.914 64.6C183.914 62.888 184.21 61.376 184.802 60.064C185.41 58.752 186.266 57.736 187.37 57.016C188.474 56.28 189.802 55.912 191.354 55.912C192.906 55.912 194.234 56.28 195.338 57.016C196.442 57.736 197.29 58.752 197.882 60.064C198.49 61.376 198.794 62.888 198.794 64.6C198.794 66.328 198.49 67.848 197.882 69.16C197.29 70.456 196.442 71.472 195.338 72.208C194.234 72.928 192.906 73.288 191.354 73.288ZM191.354 70.528C192.618 70.528 193.65 70 194.45 68.944C195.25 67.888 195.65 66.44 195.65 64.6C195.65 62.76 195.25 61.312 194.45 60.256C193.65 59.2 192.618 58.672 191.354 58.672C190.074 58.672 189.034 59.2 188.234 60.256C187.45 61.312 187.058 62.76 187.058 64.6C187.058 66.44 187.45 67.888 188.234 68.944C189.034 70 190.074 70.528 191.354 70.528Z" fill="#AD343E"/>
<path d="M291.36 20V6H293.92V11.82H300.2V6H302.76V20H300.2V13.9H293.92V20H291.36ZM310.181 20.24C309.221 20.24 308.354 20.02 307.581 19.58C306.821 19.14 306.214 18.5333 305.761 17.76C305.321 16.9733 305.101 16.0667 305.101 15.04C305.101 14.0133 305.328 13.1133 305.781 12.34C306.234 11.5533 306.841 10.94 307.601 10.5C308.374 10.06 309.241 9.84 310.201 9.84C311.148 9.84 312.001 10.06 312.761 10.5C313.534 10.94 314.141 11.5533 314.581 12.34C315.034 13.1133 315.261 14.0133 315.261 15.04C315.261 16.0667 315.034 16.9733 314.581 17.76C314.141 18.5333 313.534 19.14 312.761 19.58C311.988 20.02 311.128 20.24 310.181 20.24ZM310.181 18.02C310.848 18.02 311.428 17.7733 311.921 17.28C312.414 16.7733 312.661 16.0267 312.661 15.04C312.661 14.0533 312.414 13.3133 311.921 12.82C311.428 12.3133 310.854 12.06 310.201 12.06C309.521 12.06 308.934 12.3133 308.441 12.82C307.961 13.3133 307.721 14.0533 307.721 15.04C307.721 16.0267 307.961 16.7733 308.441 17.28C308.934 17.7733 309.514 18.02 310.181 18.02ZM321.27 20.24C320.03 20.24 319.07 19.8533 318.39 19.08C317.723 18.3067 317.39 17.1733 317.39 15.68V10.08H319.93V15.44C319.93 16.2933 320.103 16.9467 320.45 17.4C320.797 17.8533 321.343 18.08 322.09 18.08C322.797 18.08 323.377 17.8267 323.83 17.32C324.297 16.8133 324.53 16.1067 324.53 15.2V10.08H327.09V20H324.83L324.63 18.32C324.323 18.9067 323.877 19.3733 323.29 19.72C322.717 20.0667 322.043 20.24 321.27 20.24ZM329.718 20V10.08H331.998L332.238 11.94C332.598 11.3 333.085 10.7933 333.698 10.42C334.325 10.0333 335.058 9.84 335.898 9.84V12.54H335.178C334.618 12.54 334.118 12.6267 333.678 12.8C333.238 12.9733 332.891 13.2733 332.638 13.7C332.398 14.1267 332.278 14.72 332.278 15.48V20H329.718ZM341.748 20.24C340.868 20.24 340.094 20.1 339.428 19.82C338.761 19.5267 338.228 19.1267 337.828 18.62C337.428 18.1133 337.188 17.5267 337.108 16.86H339.688C339.768 17.2467 339.981 17.58 340.328 17.86C340.688 18.1267 341.148 18.26 341.708 18.26C342.268 18.26 342.674 18.1467 342.928 17.92C343.194 17.6933 343.328 17.4333 343.328 17.14C343.328 16.7133 343.141 16.4267 342.768 16.28C342.394 16.12 341.874 15.9667 341.208 15.82C340.781 15.7267 340.348 15.6133 339.908 15.48C339.468 15.3467 339.061 15.18 338.688 14.98C338.328 14.7667 338.034 14.5 337.808 14.18C337.581 13.8467 337.468 13.44 337.468 12.96C337.468 12.08 337.814 11.34 338.508 10.74C339.214 10.14 340.201 9.84 341.468 9.84C342.641 9.84 343.574 10.1133 344.268 10.66C344.974 11.2067 345.394 11.96 345.528 12.92H343.108C342.961 12.1867 342.408 11.82 341.448 11.82C340.968 11.82 340.594 11.9133 340.328 12.1C340.074 12.2867 339.948 12.52 339.948 12.8C339.948 13.0933 340.141 13.3267 340.528 13.5C340.914 13.6733 341.428 13.8333 342.068 13.98C342.761 14.14 343.394 14.32 343.968 14.52C344.554 14.7067 345.021 14.9933 345.368 15.38C345.714 15.7533 345.888 16.2933 345.888 17C345.901 17.6133 345.741 18.1667 345.408 18.66C345.074 19.1533 344.594 19.54 343.968 19.82C343.341 20.1 342.601 20.24 341.748 20.24ZM349.255 20.14C348.789 20.14 348.402 19.9933 348.095 19.7C347.802 19.4067 347.655 19.0533 347.655 18.64C347.655 18.2133 347.802 17.8533 348.095 17.56C348.402 17.2667 348.789 17.12 349.255 17.12C349.722 17.12 350.102 17.2667 350.395 17.56C350.702 17.8533 350.855 18.2133 350.855 18.64C350.855 19.0533 350.702 19.4067 350.395 19.7C350.102 19.9933 349.722 20.14 349.255 20.14ZM349.255 12.86C348.789 12.86 348.402 12.7133 348.095 12.42C347.802 12.1267 347.655 11.7733 347.655 11.36C347.655 10.9333 347.802 10.5733 348.095 10.28C348.402 9.98667 348.789 9.84 349.255 9.84C349.722 9.84 350.102 9.98667 350.395 10.28C350.702 10.5733 350.855 10.9333 350.855 11.36C350.855 11.7733 350.702 12.1267 350.395 12.42C350.102 12.7133 349.722 12.86 349.255 12.86Z" fill="#2C2F24"/>
<path d="M291.332 70V57.4H293.096L297.632 66.184L302.132 57.4H303.914V70H302.402V60.1L298.19 68.2H297.056L292.844 60.118V70H291.332ZM310.55 70.216C309.71 70.216 308.954 70.024 308.282 69.64C307.61 69.256 307.076 68.716 306.68 68.02C306.296 67.312 306.104 66.484 306.104 65.536C306.104 64.588 306.302 63.766 306.698 63.07C307.094 62.362 307.628 61.816 308.3 61.432C308.984 61.048 309.746 60.856 310.586 60.856C311.426 60.856 312.182 61.048 312.854 61.432C313.526 61.816 314.054 62.362 314.438 63.07C314.834 63.766 315.032 64.588 315.032 65.536C315.032 66.484 314.834 67.312 314.438 68.02C314.042 68.716 313.502 69.256 312.818 69.64C312.146 70.024 311.39 70.216 310.55 70.216ZM310.55 68.92C311.066 68.92 311.546 68.794 311.99 68.542C312.434 68.29 312.794 67.912 313.07 67.408C313.346 66.904 313.484 66.28 313.484 65.536C313.484 64.792 313.346 64.168 313.07 63.664C312.806 63.16 312.452 62.782 312.008 62.53C311.564 62.278 311.09 62.152 310.586 62.152C310.07 62.152 309.59 62.278 309.146 62.53C308.702 62.782 308.342 63.16 308.066 63.664C307.79 64.168 307.652 64.792 307.652 65.536C307.652 66.28 307.79 66.904 308.066 67.408C308.342 67.912 308.696 68.29 309.128 68.542C309.572 68.794 310.046 68.92 310.55 68.92ZM317.135 70V61.072H318.503L318.593 62.674C318.881 62.11 319.295 61.666 319.835 61.342C320.375 61.018 320.987 60.856 321.671 60.856C322.727 60.856 323.567 61.18 324.191 61.828C324.827 62.464 325.145 63.448 325.145 64.78V70H323.633V64.942C323.633 63.082 322.865 62.152 321.329 62.152C320.561 62.152 319.919 62.434 319.403 62.998C318.899 63.55 318.647 64.342 318.647 65.374V70H317.135ZM327.255 65.41V64.132H334.383V65.41H327.255ZM336.754 70V57.4H344.422V58.642H338.266V63.07H343.504V64.294H338.266V70H336.754ZM346.279 70V61.072H347.647L347.773 62.782C348.049 62.194 348.469 61.726 349.033 61.378C349.597 61.03 350.293 60.856 351.121 60.856V62.44H350.707C350.179 62.44 349.693 62.536 349.249 62.728C348.805 62.908 348.451 63.22 348.187 63.664C347.923 64.108 347.791 64.72 347.791 65.5V70H346.279ZM353.736 59.092C353.436 59.092 353.184 58.996 352.98 58.804C352.788 58.6 352.692 58.348 352.692 58.048C352.692 57.76 352.788 57.52 352.98 57.328C353.184 57.136 353.436 57.04 353.736 57.04C354.024 57.04 354.27 57.136 354.474 57.328C354.678 57.52 354.78 57.76 354.78 58.048C354.78 58.348 354.678 58.6 354.474 58.804C354.27 58.996 354.024 59.092 353.736 59.092ZM352.98 70V61.072H354.492V70H352.98ZM357.647 70.09C357.347 70.09 357.095 69.994 356.891 69.802C356.699 69.598 356.603 69.352 356.603 69.064C356.603 68.776 356.699 68.536 356.891 68.344C357.095 68.14 357.347 68.038 357.647 68.038C357.935 68.038 358.175 68.14 358.367 68.344C358.571 68.536 358.673 68.776 358.673 69.064C358.673 69.352 358.571 69.598 358.367 69.802C358.175 69.994 357.935 70.09 357.647 70.09ZM357.647 62.908C357.347 62.908 357.095 62.812 356.891 62.62C356.699 62.416 356.603 62.17 356.603 61.882C356.603 61.594 356.699 61.354 356.891 61.162C357.095 60.958 357.347 60.856 357.647 60.856C357.935 60.856 358.175 60.958 358.367 61.162C358.571 61.354 358.673 61.594 358.673 61.882C358.673 62.17 358.571 62.416 358.367 62.62C358.175 62.812 357.935 62.908 357.647 62.908ZM366.806 70V59.092L364.772 59.542V58.498L367.31 57.4H368.336V70H366.806ZM372.238 70V59.092L370.204 59.542V58.498L372.742 57.4H373.768V70H372.238ZM379.308 70.216C378.564 70.216 377.946 70.09 377.454 69.838C376.962 69.586 376.596 69.25 376.356 68.83C376.116 68.41 375.996 67.954 375.996 67.462C375.996 66.55 376.344 65.848 377.04 65.356C377.736 64.864 378.684 64.618 379.884 64.618H382.296V64.51C382.296 63.73 382.092 63.142 381.684 62.746C381.276 62.338 380.73 62.134 380.046 62.134C379.458 62.134 378.948 62.284 378.516 62.584C378.096 62.872 377.832 63.298 377.724 63.862H376.176C376.236 63.214 376.452 62.668 376.824 62.224C377.208 61.78 377.682 61.444 378.246 61.216C378.81 60.976 379.41 60.856 380.046 60.856C381.294 60.856 382.23 61.192 382.854 61.864C383.49 62.524 383.808 63.406 383.808 64.51V70H382.458L382.368 68.398C382.116 68.902 381.744 69.334 381.252 69.694C380.772 70.042 380.124 70.216 379.308 70.216ZM379.542 68.938C380.118 68.938 380.61 68.788 381.018 68.488C381.438 68.188 381.756 67.798 381.972 67.318C382.188 66.838 382.296 66.334 382.296 65.806V65.788H380.01C379.122 65.788 378.492 65.944 378.12 66.256C377.76 66.556 377.58 66.934 377.58 67.39C377.58 67.858 377.748 68.236 378.084 68.524C378.432 68.8 378.918 68.938 379.542 68.938ZM386.076 70V61.072H387.444L387.552 62.368C387.84 61.888 388.224 61.516 388.704 61.252C389.184 60.988 389.724 60.856 390.324 60.856C391.032 60.856 391.638 61 392.142 61.288C392.658 61.576 393.054 62.014 393.33 62.602C393.642 62.062 394.068 61.636 394.608 61.324C395.16 61.012 395.754 60.856 396.39 60.856C397.458 60.856 398.31 61.18 398.946 61.828C399.582 62.464 399.9 63.448 399.9 64.78V70H398.406V64.942C398.406 64.018 398.22 63.322 397.848 62.854C397.476 62.386 396.942 62.152 396.246 62.152C395.526 62.152 394.926 62.434 394.446 62.998C393.978 63.55 393.744 64.342 393.744 65.374V70H392.232V64.942C392.232 64.018 392.046 63.322 391.674 62.854C391.302 62.386 390.768 62.152 390.072 62.152C389.364 62.152 388.77 62.434 388.29 62.998C387.822 63.55 387.588 64.342 387.588 65.374V70H386.076ZM406.761 65.41V64.132H413.889V65.41H406.761ZM425.181 70.216C424.353 70.216 423.609 70.066 422.949 69.766C422.289 69.454 421.767 69.028 421.383 68.488C421.011 67.936 420.825 67.3 420.825 66.58C420.825 65.812 421.047 65.122 421.491 64.51C421.947 63.898 422.547 63.49 423.291 63.286C422.607 63.058 422.079 62.692 421.707 62.188C421.335 61.684 421.149 61.132 421.149 60.532C421.149 59.92 421.311 59.362 421.635 58.858C421.959 58.342 422.421 57.934 423.021 57.634C423.621 57.334 424.341 57.184 425.181 57.184C426.021 57.184 426.741 57.334 427.341 57.634C427.941 57.934 428.403 58.342 428.727 58.858C429.051 59.362 429.213 59.92 429.213 60.532C429.213 61.12 429.027 61.672 428.655 62.188C428.283 62.692 427.755 63.058 427.071 63.286C427.815 63.49 428.409 63.898 428.853 64.51C429.309 65.122 429.537 65.812 429.537 66.58C429.537 67.3 429.345 67.936 428.961 68.488C428.589 69.028 428.073 69.454 427.413 69.766C426.753 70.066 426.009 70.216 425.181 70.216ZM425.181 62.746C425.949 62.746 426.555 62.554 426.999 62.17C427.455 61.774 427.683 61.258 427.683 60.622C427.683 59.914 427.461 59.38 427.017 59.02C426.573 58.66 425.961 58.48 425.181 58.48C424.401 58.48 423.789 58.66 423.345 59.02C422.913 59.38 422.697 59.914 422.697 60.622C422.697 61.258 422.919 61.774 423.363 62.17C423.807 62.554 424.413 62.746 425.181 62.746ZM425.181 68.884C426.129 68.884 426.837 68.668 427.305 68.236C427.785 67.792 428.025 67.21 428.025 66.49C428.025 65.674 427.767 65.056 427.251 64.636C426.735 64.216 426.045 64.006 425.181 64.006C424.317 64.006 423.627 64.216 423.111 64.636C422.595 65.056 422.337 65.674 422.337 66.49C422.337 67.21 422.571 67.792 423.039 68.236C423.519 68.668 424.233 68.884 425.181 68.884ZM431.92 73.96V61.072H433.288L433.432 62.548C433.72 62.116 434.128 61.726 434.656 61.378C435.196 61.03 435.88 60.856 436.708 60.856C437.596 60.856 438.37 61.06 439.03 61.468C439.69 61.876 440.2 62.434 440.56 63.142C440.932 63.85 441.118 64.654 441.118 65.554C441.118 66.454 440.932 67.258 440.56 67.966C440.2 68.662 439.684 69.214 439.012 69.622C438.352 70.018 437.578 70.216 436.69 70.216C435.958 70.216 435.304 70.066 434.728 69.766C434.164 69.466 433.732 69.046 433.432 68.506V73.96H431.92ZM436.528 68.902C437.128 68.902 437.656 68.764 438.112 68.488C438.568 68.2 438.928 67.804 439.192 67.3C439.456 66.796 439.588 66.208 439.588 65.536C439.588 64.864 439.456 64.276 439.192 63.772C438.928 63.268 438.568 62.878 438.112 62.602C437.656 62.314 437.128 62.17 436.528 62.17C435.928 62.17 435.4 62.314 434.944 62.602C434.488 62.878 434.128 63.268 433.864 63.772C433.6 64.276 433.468 64.864 433.468 65.536C433.468 66.208 433.6 66.796 433.864 67.3C434.128 67.804 434.488 68.2 434.944 68.488C435.4 68.764 435.928 68.902 436.528 68.902ZM443.222 70V61.072H444.59L444.698 62.368C444.986 61.888 445.37 61.516 445.85 61.252C446.33 60.988 446.87 60.856 447.47 60.856C448.178 60.856 448.784 61 449.288 61.288C449.804 61.576 450.2 62.014 450.476 62.602C450.788 62.062 451.214 61.636 451.754 61.324C452.306 61.012 452.9 60.856 453.536 60.856C454.604 60.856 455.456 61.18 456.092 61.828C456.728 62.464 457.046 63.448 457.046 64.78V70H455.552V64.942C455.552 64.018 455.366 63.322 454.994 62.854C454.622 62.386 454.088 62.152 453.392 62.152C452.672 62.152 452.072 62.434 451.592 62.998C451.124 63.55 450.89 64.342 450.89 65.374V70H449.378V64.942C449.378 64.018 449.192 63.322 448.82 62.854C448.448 62.386 447.914 62.152 447.218 62.152C446.51 62.152 445.916 62.434 445.436 62.998C444.968 63.55 444.734 64.342 444.734 65.374V70H443.222ZM295.346 98.216C294.422 98.216 293.618 98.048 292.934 97.712C292.25 97.376 291.722 96.908 291.35 96.308C290.978 95.708 290.792 95.012 290.792 94.22H292.376C292.376 94.712 292.49 95.168 292.718 95.588C292.946 95.996 293.276 96.326 293.708 96.578C294.152 96.818 294.698 96.938 295.346 96.938C296.198 96.938 296.858 96.734 297.326 96.326C297.794 95.918 298.028 95.408 298.028 94.796C298.028 94.292 297.92 93.89 297.704 93.59C297.488 93.278 297.194 93.026 296.822 92.834C296.462 92.642 296.042 92.474 295.562 92.33C295.094 92.186 294.602 92.024 294.086 91.844C293.114 91.508 292.394 91.094 291.926 90.602C291.458 90.098 291.224 89.444 291.224 88.64C291.212 87.968 291.368 87.374 291.692 86.858C292.016 86.33 292.472 85.922 293.06 85.634C293.66 85.334 294.368 85.184 295.184 85.184C295.988 85.184 296.684 85.334 297.272 85.634C297.872 85.934 298.334 86.348 298.658 86.876C298.994 87.404 299.168 88.004 299.18 88.676H297.596C297.596 88.328 297.506 87.986 297.326 87.65C297.146 87.302 296.87 87.02 296.498 86.804C296.138 86.588 295.682 86.48 295.13 86.48C294.446 86.468 293.882 86.642 293.438 87.002C293.006 87.362 292.79 87.86 292.79 88.496C292.79 89.036 292.94 89.45 293.24 89.738C293.552 90.026 293.984 90.266 294.536 90.458C295.088 90.638 295.724 90.848 296.444 91.088C297.044 91.304 297.584 91.556 298.064 91.844C298.544 92.132 298.916 92.504 299.18 92.96C299.456 93.416 299.594 93.998 299.594 94.706C299.594 95.306 299.438 95.876 299.126 96.416C298.814 96.944 298.34 97.376 297.704 97.712C297.08 98.048 296.294 98.216 295.346 98.216ZM304.618 98.216C303.874 98.216 303.256 98.09 302.764 97.838C302.272 97.586 301.906 97.25 301.666 96.83C301.426 96.41 301.306 95.954 301.306 95.462C301.306 94.55 301.654 93.848 302.35 93.356C303.046 92.864 303.994 92.618 305.194 92.618H307.606V92.51C307.606 91.73 307.402 91.142 306.994 90.746C306.586 90.338 306.04 90.134 305.356 90.134C304.768 90.134 304.258 90.284 303.826 90.584C303.406 90.872 303.142 91.298 303.034 91.862H301.486C301.546 91.214 301.762 90.668 302.134 90.224C302.518 89.78 302.992 89.444 303.556 89.216C304.12 88.976 304.72 88.856 305.356 88.856C306.604 88.856 307.54 89.192 308.164 89.864C308.8 90.524 309.118 91.406 309.118 92.51V98H307.768L307.678 96.398C307.426 96.902 307.054 97.334 306.562 97.694C306.082 98.042 305.434 98.216 304.618 98.216ZM304.852 96.938C305.428 96.938 305.92 96.788 306.328 96.488C306.748 96.188 307.066 95.798 307.282 95.318C307.498 94.838 307.606 94.334 307.606 93.806V93.788H305.32C304.432 93.788 303.802 93.944 303.43 94.256C303.07 94.556 302.89 94.934 302.89 95.39C302.89 95.858 303.058 96.236 303.394 96.524C303.742 96.8 304.228 96.938 304.852 96.938ZM314.668 98C313.852 98 313.21 97.802 312.742 97.406C312.274 97.01 312.04 96.296 312.04 95.264V90.35H310.492V89.072H312.04L312.238 86.93H313.552V89.072H316.18V90.35H313.552V95.264C313.552 95.828 313.666 96.212 313.894 96.416C314.122 96.608 314.524 96.704 315.1 96.704H316.036V98H314.668ZM317.827 100.142L318.871 96.164H320.437L318.871 100.142H317.827ZM331.1 98.216C330.176 98.216 329.372 98.048 328.688 97.712C328.004 97.376 327.476 96.908 327.104 96.308C326.732 95.708 326.546 95.012 326.546 94.22H328.13C328.13 94.712 328.244 95.168 328.472 95.588C328.7 95.996 329.03 96.326 329.462 96.578C329.906 96.818 330.452 96.938 331.1 96.938C331.952 96.938 332.612 96.734 333.08 96.326C333.548 95.918 333.782 95.408 333.782 94.796C333.782 94.292 333.674 93.89 333.458 93.59C333.242 93.278 332.948 93.026 332.576 92.834C332.216 92.642 331.796 92.474 331.316 92.33C330.848 92.186 330.356 92.024 329.84 91.844C328.868 91.508 328.148 91.094 327.68 90.602C327.212 90.098 326.978 89.444 326.978 88.64C326.966 87.968 327.122 87.374 327.446 86.858C327.77 86.33 328.226 85.922 328.814 85.634C329.414 85.334 330.122 85.184 330.938 85.184C331.742 85.184 332.438 85.334 333.026 85.634C333.626 85.934 334.088 86.348 334.412 86.876C334.748 87.404 334.922 88.004 334.934 88.676H333.35C333.35 88.328 333.26 87.986 333.08 87.65C332.9 87.302 332.624 87.02 332.252 86.804C331.892 86.588 331.436 86.48 330.884 86.48C330.2 86.468 329.636 86.642 329.192 87.002C328.76 87.362 328.544 87.86 328.544 88.496C328.544 89.036 328.694 89.45 328.994 89.738C329.306 90.026 329.738 90.266 330.29 90.458C330.842 90.638 331.478 90.848 332.198 91.088C332.798 91.304 333.338 91.556 333.818 91.844C334.298 92.132 334.67 92.504 334.934 92.96C335.21 93.416 335.348 93.998 335.348 94.706C335.348 95.306 335.192 95.876 334.88 96.416C334.568 96.944 334.094 97.376 333.458 97.712C332.834 98.048 332.048 98.216 331.1 98.216ZM340.66 98.216C339.604 98.216 338.764 97.898 338.14 97.262C337.516 96.614 337.204 95.624 337.204 94.292V89.072H338.716V94.13C338.716 95.99 339.478 96.92 341.002 96.92C341.782 96.92 342.424 96.644 342.928 96.092C343.444 95.528 343.702 94.73 343.702 93.698V89.072H345.214V98H343.846L343.738 96.398C343.462 96.962 343.048 97.406 342.496 97.73C341.956 98.054 341.344 98.216 340.66 98.216ZM347.703 98V89.072H349.071L349.161 90.674C349.449 90.11 349.863 89.666 350.403 89.342C350.943 89.018 351.555 88.856 352.239 88.856C353.295 88.856 354.135 89.18 354.759 89.828C355.395 90.464 355.713 91.448 355.713 92.78V98H354.201V92.942C354.201 91.082 353.433 90.152 351.897 90.152C351.129 90.152 350.487 90.434 349.971 90.998C349.467 91.55 349.215 92.342 349.215 93.374V98H347.703ZM358.526 98.09C358.226 98.09 357.974 97.994 357.77 97.802C357.578 97.598 357.482 97.352 357.482 97.064C357.482 96.776 357.578 96.536 357.77 96.344C357.974 96.14 358.226 96.038 358.526 96.038C358.814 96.038 359.054 96.14 359.246 96.344C359.45 96.536 359.552 96.776 359.552 97.064C359.552 97.352 359.45 97.598 359.246 97.802C359.054 97.994 358.814 98.09 358.526 98.09ZM358.526 90.908C358.226 90.908 357.974 90.812 357.77 90.62C357.578 90.416 357.482 90.17 357.482 89.882C357.482 89.594 357.578 89.354 357.77 89.162C357.974 88.958 358.226 88.856 358.526 88.856C358.814 88.856 359.054 88.958 359.246 89.162C359.45 89.354 359.552 89.594 359.552 89.882C359.552 90.17 359.45 90.416 359.246 90.62C359.054 90.812 358.814 90.908 358.526 90.908ZM370.601 98.216C369.809 98.216 369.131 98.06 368.567 97.748C368.003 97.436 367.553 97.022 367.217 96.506C366.893 95.978 366.695 95.396 366.623 94.76H368.027C368.147 95.444 368.435 95.972 368.891 96.344C369.347 96.716 369.923 96.902 370.619 96.902C371.579 96.902 372.377 96.458 373.013 95.57C373.649 94.67 373.991 93.272 374.039 91.376C373.751 91.94 373.289 92.432 372.653 92.852C372.029 93.26 371.273 93.464 370.385 93.464C369.677 93.464 369.005 93.296 368.369 92.96C367.733 92.624 367.217 92.156 366.821 91.556C366.425 90.944 366.227 90.23 366.227 89.414C366.227 88.706 366.401 88.028 366.749 87.38C367.109 86.732 367.613 86.204 368.261 85.796C368.909 85.388 369.683 85.184 370.583 85.184C371.495 85.184 372.263 85.358 372.887 85.706C373.511 86.042 374.009 86.498 374.381 87.074C374.765 87.65 375.041 88.298 375.209 89.018C375.389 89.726 375.479 90.452 375.479 91.196C375.479 92.588 375.287 93.812 374.903 94.868C374.519 95.912 373.961 96.734 373.229 97.334C372.509 97.922 371.633 98.216 370.601 98.216ZM370.691 92.15C371.255 92.15 371.759 92.024 372.203 91.772C372.647 91.508 373.001 91.16 373.265 90.728C373.529 90.296 373.661 89.828 373.661 89.324C373.661 88.784 373.529 88.304 373.265 87.884C373.001 87.452 372.647 87.116 372.203 86.876C371.759 86.636 371.255 86.516 370.691 86.516C370.127 86.516 369.623 86.636 369.179 86.876C368.735 87.116 368.387 87.452 368.135 87.884C367.883 88.304 367.757 88.79 367.757 89.342C367.757 90.194 368.033 90.878 368.585 91.394C369.149 91.898 369.851 92.15 370.691 92.15ZM380.661 98.216C379.917 98.216 379.299 98.09 378.807 97.838C378.315 97.586 377.949 97.25 377.709 96.83C377.469 96.41 377.349 95.954 377.349 95.462C377.349 94.55 377.697 93.848 378.393 93.356C379.089 92.864 380.037 92.618 381.237 92.618H383.649V92.51C383.649 91.73 383.445 91.142 383.037 90.746C382.629 90.338 382.083 90.134 381.399 90.134C380.811 90.134 380.301 90.284 379.869 90.584C379.449 90.872 379.185 91.298 379.077 91.862H377.529C377.589 91.214 377.805 90.668 378.177 90.224C378.561 89.78 379.035 89.444 379.599 89.216C380.163 88.976 380.763 88.856 381.399 88.856C382.647 88.856 383.583 89.192 384.207 89.864C384.843 90.524 385.161 91.406 385.161 92.51V98H383.811L383.721 96.398C383.469 96.902 383.097 97.334 382.605 97.694C382.125 98.042 381.477 98.216 380.661 98.216ZM380.895 96.938C381.471 96.938 381.963 96.788 382.371 96.488C382.791 96.188 383.109 95.798 383.325 95.318C383.541 94.838 383.649 94.334 383.649 93.806V93.788H381.363C380.475 93.788 379.845 93.944 379.473 94.256C379.113 94.556 378.933 94.934 378.933 95.39C378.933 95.858 379.101 96.236 379.437 96.524C379.785 96.8 380.271 96.938 380.895 96.938ZM387.43 98V89.072H388.798L388.906 90.368C389.194 89.888 389.578 89.516 390.058 89.252C390.538 88.988 391.078 88.856 391.678 88.856C392.386 88.856 392.992 89 393.496 89.288C394.012 89.576 394.408 90.014 394.684 90.602C394.996 90.062 395.422 89.636 395.962 89.324C396.514 89.012 397.108 88.856 397.744 88.856C398.812 88.856 399.664 89.18 400.3 89.828C400.936 90.464 401.254 91.448 401.254 92.78V98H399.76V92.942C399.76 92.018 399.574 91.322 399.202 90.854C398.83 90.386 398.296 90.152 397.6 90.152C396.88 90.152 396.28 90.434 395.8 90.998C395.332 91.55 395.098 92.342 395.098 93.374V98H393.586V92.942C393.586 92.018 393.4 91.322 393.028 90.854C392.656 90.386 392.122 90.152 391.426 90.152C390.718 90.152 390.124 90.434 389.644 90.998C389.176 91.55 388.942 92.342 388.942 93.374V98H387.43ZM408.115 93.41V92.132H415.243V93.41H408.115ZM423.619 98V87.092L421.585 87.542V86.498L424.123 85.4H425.149V98H423.619ZM432.723 98.216C431.607 98.216 430.641 97.946 429.825 97.406C429.021 96.854 428.403 96.092 427.971 95.12C427.539 94.136 427.323 92.996 427.323 91.7C427.323 90.404 427.539 89.27 427.971 88.298C428.403 87.314 429.021 86.552 429.825 86.012C430.641 85.46 431.607 85.184 432.723 85.184C433.839 85.184 434.799 85.46 435.603 86.012C436.407 86.552 437.025 87.314 437.457 88.298C437.889 89.27 438.105 90.404 438.105 91.7C438.105 92.996 437.889 94.136 437.457 95.12C437.025 96.092 436.407 96.854 435.603 97.406C434.799 97.946 433.839 98.216 432.723 98.216ZM432.723 96.884C433.455 96.884 434.109 96.68 434.685 96.272C435.273 95.852 435.729 95.258 436.053 94.49C436.389 93.71 436.557 92.78 436.557 91.7C436.557 90.62 436.389 89.696 436.053 88.928C435.729 88.16 435.273 87.572 434.685 87.164C434.109 86.744 433.455 86.534 432.723 86.534C431.979 86.534 431.319 86.744 430.743 87.164C430.167 87.572 429.711 88.16 429.375 88.928C429.039 89.696 428.871 90.62 428.871 91.7C428.871 92.78 429.039 93.71 429.375 94.49C429.711 95.258 430.167 95.852 430.743 96.272C431.319 96.68 431.979 96.884 432.723 96.884ZM440.199 101.96V89.072H441.567L441.711 90.548C441.999 90.116 442.407 89.726 442.935 89.378C443.475 89.03 444.159 88.856 444.987 88.856C445.875 88.856 446.649 89.06 447.309 89.468C447.969 89.876 448.479 90.434 448.839 91.142C449.211 91.85 449.397 92.654 449.397 93.554C449.397 94.454 449.211 95.258 448.839 95.966C448.479 96.662 447.963 97.214 447.291 97.622C446.631 98.018 445.857 98.216 444.969 98.216C444.237 98.216 443.583 98.066 443.007 97.766C442.443 97.466 442.011 97.046 441.711 96.506V101.96H440.199ZM444.807 96.902C445.407 96.902 445.935 96.764 446.391 96.488C446.847 96.2 447.207 95.804 447.471 95.3C447.735 94.796 447.867 94.208 447.867 93.536C447.867 92.864 447.735 92.276 447.471 91.772C447.207 91.268 446.847 90.878 446.391 90.602C445.935 90.314 445.407 90.17 444.807 90.17C444.207 90.17 443.679 90.314 443.223 90.602C442.767 90.878 442.407 91.268 442.143 91.772C441.879 92.276 441.747 92.864 441.747 93.536C441.747 94.208 441.879 94.796 442.143 95.3C442.407 95.804 442.767 96.2 443.223 96.488C443.679 96.764 444.207 96.902 444.807 96.902ZM451.502 98V89.072H452.87L452.978 90.368C453.266 89.888 453.65 89.516 454.13 89.252C454.61 88.988 455.15 88.856 455.75 88.856C456.458 88.856 457.064 89 457.568 89.288C458.084 89.576 458.48 90.014 458.756 90.602C459.068 90.062 459.494 89.636 460.034 89.324C460.586 89.012 461.18 88.856 461.816 88.856C462.884 88.856 463.736 89.18 464.372 89.828C465.008 90.464 465.326 91.448 465.326 92.78V98H463.832V92.942C463.832 92.018 463.646 91.322 463.274 90.854C462.902 90.386 462.368 90.152 461.672 90.152C460.952 90.152 460.352 90.434 459.872 90.998C459.404 91.55 459.17 92.342 459.17 93.374V98H457.658V92.942C457.658 92.018 457.472 91.322 457.1 90.854C456.728 90.386 456.194 90.152 455.498 90.152C454.79 90.152 454.196 90.434 453.716 90.998C453.248 91.55 453.014 92.342 453.014 93.374V98H451.502Z" fill="#2C2F24"/>
<path d="M574.92 20.24C573.52 20.24 572.293 19.9333 571.24 19.32C570.2 18.7067 569.38 17.86 568.78 16.78C568.193 15.6867 567.9 14.4267 567.9 13C567.9 11.5733 568.193 10.32 568.78 9.24C569.38 8.14667 570.2 7.29333 571.24 6.68C572.293 6.06667 573.52 5.76 574.92 5.76C576.307 5.76 577.527 6.06667 578.58 6.68C579.633 7.29333 580.453 8.14667 581.04 9.24C581.627 10.32 581.92 11.5733 581.92 13C581.92 14.4267 581.627 15.6867 581.04 16.78C580.453 17.86 579.633 18.7067 578.58 19.32C577.527 19.9333 576.307 20.24 574.92 20.24ZM574.92 17.94C576.253 17.94 577.313 17.5 578.1 16.62C578.9 15.74 579.3 14.5333 579.3 13C579.3 11.4667 578.9 10.26 578.1 9.38C577.313 8.5 576.253 8.06 574.92 8.06C573.587 8.06 572.52 8.5 571.72 9.38C570.92 10.26 570.52 11.4667 570.52 13C570.52 14.5333 570.92 15.74 571.72 16.62C572.52 17.5 573.587 17.94 574.92 17.94ZM587.84 20.24C586.6 20.24 585.64 19.8533 584.96 19.08C584.294 18.3067 583.96 17.1733 583.96 15.68V10.08H586.5V15.44C586.5 16.2933 586.674 16.9467 587.02 17.4C587.367 17.8533 587.914 18.08 588.66 18.08C589.367 18.08 589.947 17.8267 590.4 17.32C590.867 16.8133 591.1 16.1067 591.1 15.2V10.08H593.66V20H591.4L591.2 18.32C590.894 18.9067 590.447 19.3733 589.86 19.72C589.287 20.0667 588.614 20.24 587.84 20.24ZM596.288 20V10.08H598.568L598.808 11.94C599.168 11.3 599.655 10.7933 600.268 10.42C600.895 10.0333 601.628 9.84 602.468 9.84V12.54H601.748C601.188 12.54 600.688 12.6267 600.248 12.8C599.808 12.9733 599.462 13.2733 599.208 13.7C598.968 14.1267 598.848 14.72 598.848 15.48V20H596.288ZM609.044 20V6H611.604V18H617.804V20H609.044ZM624.31 20.24C623.35 20.24 622.483 20.02 621.71 19.58C620.95 19.14 620.343 18.5333 619.89 17.76C619.45 16.9733 619.23 16.0667 619.23 15.04C619.23 14.0133 619.457 13.1133 619.91 12.34C620.363 11.5533 620.97 10.94 621.73 10.5C622.503 10.06 623.37 9.84 624.33 9.84C625.277 9.84 626.13 10.06 626.89 10.5C627.663 10.94 628.27 11.5533 628.71 12.34C629.163 13.1133 629.39 14.0133 629.39 15.04C629.39 16.0667 629.163 16.9733 628.71 17.76C628.27 18.5333 627.663 19.14 626.89 19.58C626.117 20.02 625.257 20.24 624.31 20.24ZM624.31 18.02C624.977 18.02 625.557 17.7733 626.05 17.28C626.543 16.7733 626.79 16.0267 626.79 15.04C626.79 14.0533 626.543 13.3133 626.05 12.82C625.557 12.3133 624.983 12.06 624.33 12.06C623.65 12.06 623.063 12.3133 622.57 12.82C622.09 13.3133 621.85 14.0533 621.85 15.04C621.85 16.0267 622.09 16.7733 622.57 17.28C623.063 17.7733 623.643 18.02 624.31 18.02ZM636.539 20.24C635.526 20.24 634.632 20.02 633.859 19.58C633.086 19.14 632.472 18.5267 632.019 17.74C631.579 16.9533 631.359 16.0533 631.359 15.04C631.359 14.0267 631.579 13.1267 632.019 12.34C632.472 11.5533 633.086 10.94 633.859 10.5C634.632 10.06 635.526 9.84 636.539 9.84C637.806 9.84 638.872 10.1733 639.739 10.84C640.606 11.4933 641.159 12.4 641.399 13.56H638.699C638.566 13.08 638.299 12.7067 637.899 12.44C637.512 12.16 637.052 12.02 636.519 12.02C635.812 12.02 635.212 12.2867 634.719 12.82C634.226 13.3533 633.979 14.0933 633.979 15.04C633.979 15.9867 634.226 16.7267 634.719 17.26C635.212 17.7933 635.812 18.06 636.519 18.06C637.052 18.06 637.512 17.9267 637.899 17.66C638.299 17.3933 638.566 17.0133 638.699 16.52H641.399C641.159 17.64 640.606 18.54 639.739 19.22C638.872 19.9 637.806 20.24 636.539 20.24ZM647.091 20.24C646.238 20.24 645.538 20.1067 644.991 19.84C644.444 19.56 644.038 19.1933 643.771 18.74C643.504 18.2867 643.371 17.7867 643.371 17.24C643.371 16.32 643.731 15.5733 644.451 15C645.171 14.4267 646.251 14.14 647.691 14.14H650.211V13.9C650.211 13.22 650.018 12.72 649.631 12.4C649.244 12.08 648.764 11.92 648.191 11.92C647.671 11.92 647.218 12.0467 646.831 12.3C646.444 12.54 646.204 12.9 646.111 13.38H643.611C643.678 12.66 643.918 12.0333 644.331 11.5C644.758 10.9667 645.304 10.56 645.971 10.28C646.638 9.98667 647.384 9.84 648.211 9.84C649.624 9.84 650.738 10.1933 651.551 10.9C652.364 11.6067 652.771 12.6067 652.771 13.9V20H650.591L650.351 18.4C650.058 18.9333 649.644 19.3733 649.111 19.72C648.591 20.0667 647.918 20.24 647.091 20.24ZM647.671 18.24C648.404 18.24 648.971 18 649.371 17.52C649.784 17.04 650.044 16.4467 650.151 15.74H647.971C647.291 15.74 646.804 15.8667 646.511 16.12C646.218 16.36 646.071 16.66 646.071 17.02C646.071 17.4067 646.218 17.7067 646.511 17.92C646.804 18.1333 647.191 18.24 647.671 18.24ZM659.497 20C658.457 20 657.624 19.7467 656.997 19.24C656.371 18.7333 656.057 17.8333 656.057 16.54V12.22H654.357V10.08H656.057L656.357 7.42H658.617V10.08H661.297V12.22H658.617V16.56C658.617 17.04 658.717 17.3733 658.917 17.56C659.131 17.7333 659.491 17.82 659.997 17.82H661.237V20H659.497ZM664.875 8.54C664.409 8.54 664.022 8.4 663.715 8.12C663.422 7.84 663.275 7.48667 663.275 7.06C663.275 6.63333 663.422 6.28667 663.715 6.02C664.022 5.74 664.409 5.6 664.875 5.6C665.342 5.6 665.722 5.74 666.015 6.02C666.322 6.28667 666.475 6.63333 666.475 7.06C666.475 7.48667 666.322 7.84 666.015 8.12C665.722 8.4 665.342 8.54 664.875 8.54ZM663.595 20V10.08H666.155V20H663.595ZM673.587 20.24C672.627 20.24 671.761 20.02 670.987 19.58C670.227 19.14 669.621 18.5333 669.167 17.76C668.727 16.9733 668.507 16.0667 668.507 15.04C668.507 14.0133 668.734 13.1133 669.187 12.34C669.641 11.5533 670.247 10.94 671.007 10.5C671.781 10.06 672.647 9.84 673.607 9.84C674.554 9.84 675.407 10.06 676.167 10.5C676.941 10.94 677.547 11.5533 677.987 12.34C678.441 13.1133 678.667 14.0133 678.667 15.04C678.667 16.0667 678.441 16.9733 677.987 17.76C677.547 18.5333 676.941 19.14 676.167 19.58C675.394 20.02 674.534 20.24 673.587 20.24ZM673.587 18.02C674.254 18.02 674.834 17.7733 675.327 17.28C675.821 16.7733 676.067 16.0267 676.067 15.04C676.067 14.0533 675.821 13.3133 675.327 12.82C674.834 12.3133 674.261 12.06 673.607 12.06C672.927 12.06 672.341 12.3133 671.847 12.82C671.367 13.3133 671.127 14.0533 671.127 15.04C671.127 16.0267 671.367 16.7733 671.847 17.28C672.341 17.7733 672.921 18.02 673.587 18.02ZM680.956 20V10.08H683.216L683.416 11.76C683.723 11.1733 684.163 10.7067 684.736 10.36C685.323 10.0133 686.01 9.84 686.796 9.84C688.023 9.84 688.976 10.2267 689.656 11C690.336 11.7733 690.676 12.9067 690.676 14.4V20H688.116V14.64C688.116 13.7867 687.943 13.1333 687.596 12.68C687.25 12.2267 686.71 12 685.976 12C685.256 12 684.663 12.2533 684.196 12.76C683.743 13.2667 683.516 13.9733 683.516 14.88V20H680.956ZM694.224 20.14C693.758 20.14 693.371 19.9933 693.064 19.7C692.771 19.4067 692.624 19.0533 692.624 18.64C692.624 18.2133 692.771 17.8533 693.064 17.56C693.371 17.2667 693.758 17.12 694.224 17.12C694.691 17.12 695.071 17.2667 695.364 17.56C695.671 17.8533 695.824 18.2133 695.824 18.64C695.824 19.0533 695.671 19.4067 695.364 19.7C695.071 19.9933 694.691 20.14 694.224 20.14ZM694.224 12.86C693.758 12.86 693.371 12.7133 693.064 12.42C692.771 12.1267 692.624 11.7733 692.624 11.36C692.624 10.9333 692.771 10.5733 693.064 10.28C693.371 9.98667 693.758 9.84 694.224 9.84C694.691 9.84 695.071 9.98667 695.364 10.28C695.671 10.5733 695.824 10.9333 695.824 11.36C695.824 11.7733 695.671 12.1267 695.364 12.42C695.071 12.7133 694.691 12.86 694.224 12.86Z" fill="#2C2F24"/>
<path d="M569.574 70V59.092L567.54 59.542V58.498L570.078 57.4H571.104V70H569.574ZM573.566 70V68.938C574.418 68.266 575.222 67.588 575.978 66.904C576.746 66.208 577.424 65.524 578.012 64.852C578.612 64.18 579.08 63.52 579.416 62.872C579.764 62.224 579.938 61.6 579.938 61C579.938 60.556 579.86 60.142 579.704 59.758C579.56 59.374 579.32 59.068 578.984 58.84C578.648 58.6 578.192 58.48 577.616 58.48C577.064 58.48 576.602 58.606 576.23 58.858C575.858 59.098 575.576 59.422 575.384 59.83C575.204 60.238 575.114 60.676 575.114 61.144H573.656C573.656 60.316 573.83 59.608 574.178 59.02C574.526 58.42 575 57.964 575.6 57.652C576.2 57.34 576.878 57.184 577.634 57.184C578.75 57.184 579.662 57.502 580.37 58.138C581.09 58.762 581.45 59.698 581.45 60.946C581.45 61.69 581.264 62.428 580.892 63.16C580.52 63.88 580.046 64.582 579.47 65.266C578.894 65.938 578.276 66.568 577.616 67.156C576.968 67.744 576.362 68.272 575.798 68.74H581.882V70H573.566ZM587.988 70.216C587.184 70.216 586.458 70.072 585.81 69.784C585.162 69.484 584.64 69.04 584.244 68.452C583.86 67.864 583.656 67.132 583.632 66.256H585.162C585.174 66.976 585.426 67.6 585.918 68.128C586.41 68.644 587.1 68.902 587.988 68.902C588.876 68.902 589.542 68.656 589.986 68.164C590.442 67.672 590.67 67.078 590.67 66.382C590.67 65.794 590.526 65.314 590.238 64.942C589.962 64.57 589.584 64.294 589.104 64.114C588.636 63.934 588.12 63.844 587.556 63.844H586.62V62.566H587.556C588.372 62.566 589.008 62.38 589.464 62.008C589.932 61.636 590.166 61.114 590.166 60.442C590.166 59.878 589.98 59.416 589.608 59.056C589.248 58.684 588.708 58.498 587.988 58.498C587.292 58.498 586.734 58.708 586.314 59.128C585.894 59.536 585.66 60.052 585.612 60.676H584.082C584.118 59.992 584.298 59.386 584.622 58.858C584.958 58.33 585.414 57.922 585.99 57.634C586.566 57.334 587.232 57.184 587.988 57.184C588.804 57.184 589.482 57.328 590.022 57.616C590.574 57.904 590.988 58.288 591.264 58.768C591.552 59.248 591.696 59.776 591.696 60.352C591.696 60.988 591.522 61.57 591.174 62.098C590.826 62.614 590.304 62.962 589.608 63.142C590.352 63.298 590.97 63.652 591.462 64.204C591.954 64.756 592.2 65.482 592.2 66.382C592.2 67.078 592.038 67.72 591.714 68.308C591.402 68.884 590.934 69.346 590.31 69.694C589.686 70.042 588.912 70.216 587.988 70.216ZM599.41 70V57.4H603.838C604.726 57.4 605.458 57.544 606.034 57.832C606.622 58.108 607.06 58.492 607.348 58.984C607.636 59.464 607.78 60.004 607.78 60.604C607.78 61.42 607.558 62.062 607.114 62.53C606.682 62.998 606.16 63.322 605.548 63.502C606.016 63.586 606.442 63.772 606.826 64.06C607.21 64.348 607.51 64.708 607.726 65.14C607.954 65.572 608.068 66.046 608.068 66.562C608.068 67.198 607.912 67.78 607.6 68.308C607.288 68.824 606.826 69.238 606.214 69.55C605.602 69.85 604.858 70 603.982 70H599.41ZM600.922 62.908H603.73C604.534 62.908 605.152 62.722 605.584 62.35C606.016 61.966 606.232 61.438 606.232 60.766C606.232 60.13 606.016 59.62 605.584 59.236C605.164 58.852 604.528 58.66 603.676 58.66H600.922V62.908ZM600.922 68.74H603.82C604.684 68.74 605.35 68.542 605.818 68.146C606.286 67.738 606.52 67.174 606.52 66.454C606.52 65.746 606.274 65.182 605.782 64.762C605.29 64.33 604.624 64.114 603.784 64.114H600.922V68.74ZM610.148 70V61.072H611.516L611.642 62.782C611.918 62.194 612.338 61.726 612.902 61.378C613.466 61.03 614.162 60.856 614.99 60.856V62.44H614.576C614.048 62.44 613.562 62.536 613.118 62.728C612.674 62.908 612.32 63.22 612.056 63.664C611.792 64.108 611.66 64.72 611.66 65.5V70H610.148ZM617.605 59.092C617.305 59.092 617.053 58.996 616.849 58.804C616.657 58.6 616.561 58.348 616.561 58.048C616.561 57.76 616.657 57.52 616.849 57.328C617.053 57.136 617.305 57.04 617.605 57.04C617.893 57.04 618.139 57.136 618.343 57.328C618.547 57.52 618.649 57.76 618.649 58.048C618.649 58.348 618.547 58.6 618.343 58.804C618.139 58.996 617.893 59.092 617.605 59.092ZM616.849 70V61.072H618.361V70H616.849ZM625.044 70.216C624.156 70.216 623.376 70.012 622.704 69.604C622.044 69.196 621.528 68.638 621.156 67.93C620.796 67.222 620.616 66.418 620.616 65.518C620.616 64.618 620.802 63.82 621.174 63.124C621.546 62.416 622.062 61.864 622.722 61.468C623.382 61.06 624.162 60.856 625.062 60.856C625.794 60.856 626.442 61.006 627.006 61.306C627.57 61.606 628.008 62.026 628.32 62.566V57.04H629.832V70H628.464L628.32 68.524C628.032 68.956 627.618 69.346 627.078 69.694C626.538 70.042 625.86 70.216 625.044 70.216ZM625.206 68.902C625.806 68.902 626.334 68.764 626.79 68.488C627.258 68.2 627.618 67.804 627.87 67.3C628.134 66.796 628.266 66.208 628.266 65.536C628.266 64.864 628.134 64.276 627.87 63.772C627.618 63.268 627.258 62.878 626.79 62.602C626.334 62.314 625.806 62.17 625.206 62.17C624.618 62.17 624.09 62.314 623.622 62.602C623.166 62.878 622.806 63.268 622.542 63.772C622.29 64.276 622.164 64.864 622.164 65.536C622.164 66.208 622.29 66.796 622.542 67.3C622.806 67.804 623.166 68.2 623.622 68.488C624.09 68.764 624.618 68.902 625.206 68.902ZM635.825 67.192C635.321 67.192 634.859 67.126 634.439 66.994L633.539 67.84C633.671 67.936 633.833 68.02 634.025 68.092C634.229 68.152 634.517 68.212 634.889 68.272C635.261 68.32 635.783 68.374 636.455 68.434C637.655 68.518 638.513 68.794 639.029 69.262C639.545 69.73 639.803 70.342 639.803 71.098C639.803 71.614 639.659 72.106 639.371 72.574C639.095 73.042 638.663 73.426 638.075 73.726C637.499 74.026 636.755 74.176 635.843 74.176C635.039 74.176 634.325 74.068 633.701 73.852C633.077 73.648 632.591 73.33 632.243 72.898C631.895 72.478 631.721 71.944 631.721 71.296C631.721 70.96 631.811 70.594 631.991 70.198C632.171 69.814 632.507 69.448 632.999 69.1C632.735 68.992 632.507 68.878 632.315 68.758C632.135 68.626 631.967 68.482 631.811 68.326V67.912L633.341 66.4C632.633 65.8 632.279 65.008 632.279 64.024C632.279 63.436 632.417 62.902 632.693 62.422C632.969 61.942 633.371 61.564 633.899 61.288C634.427 61 635.069 60.856 635.825 60.856C636.341 60.856 636.809 60.928 637.229 61.072H640.523V62.206L638.849 62.278C639.197 62.782 639.371 63.364 639.371 64.024C639.371 64.612 639.227 65.146 638.939 65.626C638.663 66.106 638.261 66.49 637.733 66.778C637.217 67.054 636.581 67.192 635.825 67.192ZM635.825 65.95C636.461 65.95 636.965 65.788 637.337 65.464C637.721 65.128 637.913 64.648 637.913 64.024C637.913 63.412 637.721 62.944 637.337 62.62C636.965 62.284 636.461 62.116 635.825 62.116C635.177 62.116 634.661 62.284 634.277 62.62C633.905 62.944 633.719 63.412 633.719 64.024C633.719 64.648 633.905 65.128 634.277 65.464C634.661 65.788 635.177 65.95 635.825 65.95ZM633.197 71.152C633.197 71.752 633.449 72.196 633.953 72.484C634.457 72.784 635.087 72.934 635.843 72.934C636.587 72.934 637.181 72.772 637.625 72.448C638.081 72.124 638.309 71.692 638.309 71.152C638.309 70.768 638.153 70.432 637.841 70.144C637.529 69.868 636.953 69.706 636.113 69.658C635.453 69.61 634.883 69.55 634.403 69.478C633.911 69.742 633.587 70.024 633.431 70.324C633.275 70.636 633.197 70.912 633.197 71.152ZM645.891 70.216C645.039 70.216 644.283 70.024 643.623 69.64C642.963 69.244 642.441 68.698 642.057 68.002C641.685 67.306 641.499 66.484 641.499 65.536C641.499 64.6 641.685 63.784 642.057 63.088C642.429 62.38 642.945 61.834 643.605 61.45C644.277 61.054 645.051 60.856 645.927 60.856C646.791 60.856 647.535 61.054 648.159 61.45C648.795 61.834 649.281 62.344 649.617 62.98C649.953 63.616 650.121 64.3 650.121 65.032C650.121 65.164 650.115 65.296 650.103 65.428C650.103 65.56 650.103 65.71 650.103 65.878H642.993C643.029 66.562 643.185 67.132 643.461 67.588C643.749 68.032 644.103 68.368 644.523 68.596C644.955 68.824 645.411 68.938 645.891 68.938C646.515 68.938 647.037 68.794 647.457 68.506C647.877 68.218 648.183 67.828 648.375 67.336H649.869C649.629 68.164 649.167 68.854 648.483 69.406C647.811 69.946 646.947 70.216 645.891 70.216ZM645.891 62.134C645.171 62.134 644.529 62.356 643.965 62.8C643.413 63.232 643.095 63.868 643.011 64.708H648.627C648.591 63.904 648.315 63.274 647.799 62.818C647.283 62.362 646.647 62.134 645.891 62.134ZM660.992 70.216C660.068 70.216 659.264 70.048 658.58 69.712C657.896 69.376 657.368 68.908 656.996 68.308C656.624 67.708 656.438 67.012 656.438 66.22H658.022C658.022 66.712 658.136 67.168 658.364 67.588C658.592 67.996 658.922 68.326 659.354 68.578C659.798 68.818 660.344 68.938 660.992 68.938C661.844 68.938 662.504 68.734 662.972 68.326C663.44 67.918 663.674 67.408 663.674 66.796C663.674 66.292 663.566 65.89 663.35 65.59C663.134 65.278 662.84 65.026 662.468 64.834C662.108 64.642 661.688 64.474 661.208 64.33C660.74 64.186 660.248 64.024 659.732 63.844C658.76 63.508 658.04 63.094 657.572 62.602C657.104 62.098 656.87 61.444 656.87 60.64C656.858 59.968 657.014 59.374 657.338 58.858C657.662 58.33 658.118 57.922 658.706 57.634C659.306 57.334 660.014 57.184 660.83 57.184C661.634 57.184 662.33 57.334 662.918 57.634C663.518 57.934 663.98 58.348 664.304 58.876C664.64 59.404 664.814 60.004 664.826 60.676H663.242C663.242 60.328 663.152 59.986 662.972 59.65C662.792 59.302 662.516 59.02 662.144 58.804C661.784 58.588 661.328 58.48 660.776 58.48C660.092 58.468 659.528 58.642 659.084 59.002C658.652 59.362 658.436 59.86 658.436 60.496C658.436 61.036 658.586 61.45 658.886 61.738C659.198 62.026 659.63 62.266 660.182 62.458C660.734 62.638 661.37 62.848 662.09 63.088C662.69 63.304 663.23 63.556 663.71 63.844C664.19 64.132 664.562 64.504 664.826 64.96C665.102 65.416 665.24 65.998 665.24 66.706C665.24 67.306 665.084 67.876 664.772 68.416C664.46 68.944 663.986 69.376 663.35 69.712C662.726 70.048 661.94 70.216 660.992 70.216ZM670.823 70C670.007 70 669.365 69.802 668.897 69.406C668.429 69.01 668.195 68.296 668.195 67.264V62.35H666.647V61.072H668.195L668.393 58.93H669.707V61.072H672.335V62.35H669.707V67.264C669.707 67.828 669.821 68.212 670.049 68.416C670.277 68.608 670.679 68.704 671.255 68.704H672.191V70H670.823ZM674.256 70V61.072H675.624L675.75 62.782C676.026 62.194 676.446 61.726 677.01 61.378C677.574 61.03 678.27 60.856 679.098 60.856V62.44H678.684C678.156 62.44 677.67 62.536 677.226 62.728C676.782 62.908 676.428 63.22 676.164 63.664C675.9 64.108 675.768 64.72 675.768 65.5V70H674.256ZM684.475 70.216C683.623 70.216 682.867 70.024 682.207 69.64C681.547 69.244 681.025 68.698 680.641 68.002C680.269 67.306 680.083 66.484 680.083 65.536C680.083 64.6 680.269 63.784 680.641 63.088C681.013 62.38 681.529 61.834 682.189 61.45C682.861 61.054 683.635 60.856 684.511 60.856C685.375 60.856 686.119 61.054 686.743 61.45C687.379 61.834 687.865 62.344 688.201 62.98C688.537 63.616 688.705 64.3 688.705 65.032C688.705 65.164 688.699 65.296 688.687 65.428C688.687 65.56 688.687 65.71 688.687 65.878H681.577C681.613 66.562 681.769 67.132 682.045 67.588C682.333 68.032 682.687 68.368 683.107 68.596C683.539 68.824 683.995 68.938 684.475 68.938C685.099 68.938 685.621 68.794 686.041 68.506C686.461 68.218 686.767 67.828 686.959 67.336H688.453C688.213 68.164 687.751 68.854 687.067 69.406C686.395 69.946 685.531 70.216 684.475 70.216ZM684.475 62.134C683.755 62.134 683.113 62.356 682.549 62.8C681.997 63.232 681.679 63.868 681.595 64.708H687.211C687.175 63.904 686.899 63.274 686.383 62.818C685.867 62.362 685.231 62.134 684.475 62.134ZM694.723 70.216C693.871 70.216 693.115 70.024 692.455 69.64C691.795 69.244 691.273 68.698 690.889 68.002C690.517 67.306 690.331 66.484 690.331 65.536C690.331 64.6 690.517 63.784 690.889 63.088C691.261 62.38 691.777 61.834 692.437 61.45C693.109 61.054 693.883 60.856 694.759 60.856C695.623 60.856 696.367 61.054 696.991 61.45C697.627 61.834 698.113 62.344 698.449 62.98C698.785 63.616 698.953 64.3 698.953 65.032C698.953 65.164 698.947 65.296 698.935 65.428C698.935 65.56 698.935 65.71 698.935 65.878H691.825C691.861 66.562 692.017 67.132 692.293 67.588C692.581 68.032 692.935 68.368 693.355 68.596C693.787 68.824 694.243 68.938 694.723 68.938C695.347 68.938 695.869 68.794 696.289 68.506C696.709 68.218 697.015 67.828 697.207 67.336H698.701C698.461 68.164 697.999 68.854 697.315 69.406C696.643 69.946 695.779 70.216 694.723 70.216ZM694.723 62.134C694.003 62.134 693.361 62.356 692.797 62.8C692.245 63.232 691.927 63.868 691.843 64.708H697.459C697.423 63.904 697.147 63.274 696.631 62.818C696.115 62.362 695.479 62.134 694.723 62.134ZM704.186 70C703.37 70 702.728 69.802 702.26 69.406C701.792 69.01 701.558 68.296 701.558 67.264V62.35H700.01V61.072H701.558L701.756 58.93H703.07V61.072H705.698V62.35H703.07V67.264C703.07 67.828 703.184 68.212 703.412 68.416C703.64 68.608 704.042 68.704 704.618 68.704H705.554V70H704.186ZM568.332 98V85.4H569.844L576.558 95.498V85.4H578.07V98H576.558L569.844 87.902V98H568.332ZM584.72 98.216C583.88 98.216 583.124 98.024 582.452 97.64C581.78 97.256 581.246 96.716 580.85 96.02C580.466 95.312 580.274 94.484 580.274 93.536C580.274 92.588 580.472 91.766 580.868 91.07C581.264 90.362 581.798 89.816 582.47 89.432C583.154 89.048 583.916 88.856 584.756 88.856C585.596 88.856 586.352 89.048 587.024 89.432C587.696 89.816 588.224 90.362 588.608 91.07C589.004 91.766 589.202 92.588 589.202 93.536C589.202 94.484 589.004 95.312 588.608 96.02C588.212 96.716 587.672 97.256 586.988 97.64C586.316 98.024 585.56 98.216 584.72 98.216ZM584.72 96.92C585.236 96.92 585.716 96.794 586.16 96.542C586.604 96.29 586.964 95.912 587.24 95.408C587.516 94.904 587.654 94.28 587.654 93.536C587.654 92.792 587.516 92.168 587.24 91.664C586.976 91.16 586.622 90.782 586.178 90.53C585.734 90.278 585.26 90.152 584.756 90.152C584.24 90.152 583.76 90.278 583.316 90.53C582.872 90.782 582.512 91.16 582.236 91.664C581.96 92.168 581.822 92.792 581.822 93.536C581.822 94.28 581.96 94.904 582.236 95.408C582.512 95.912 582.866 96.29 583.298 96.542C583.742 96.794 584.216 96.92 584.72 96.92ZM592.771 98L590.161 89.072H591.673L593.563 96.074L595.651 89.072H597.361L599.467 96.074L601.339 89.072H602.869L600.259 98H598.711L596.515 90.638L594.319 98H592.771ZM604.541 98V85.04H606.053V90.602C606.353 90.05 606.779 89.624 607.331 89.324C607.883 89.012 608.483 88.856 609.131 88.856C610.163 88.856 610.991 89.18 611.615 89.828C612.239 90.464 612.551 91.448 612.551 92.78V98H611.057V92.942C611.057 91.082 610.307 90.152 608.807 90.152C608.027 90.152 607.373 90.434 606.845 90.998C606.317 91.55 606.053 92.342 606.053 93.374V98H604.541ZM618.856 98.216C618.004 98.216 617.248 98.024 616.588 97.64C615.928 97.244 615.406 96.698 615.022 96.002C614.65 95.306 614.464 94.484 614.464 93.536C614.464 92.6 614.65 91.784 615.022 91.088C615.394 90.38 615.91 89.834 616.57 89.45C617.242 89.054 618.016 88.856 618.892 88.856C619.756 88.856 620.5 89.054 621.124 89.45C621.76 89.834 622.246 90.344 622.582 90.98C622.918 91.616 623.086 92.3 623.086 93.032C623.086 93.164 623.08 93.296 623.068 93.428C623.068 93.56 623.068 93.71 623.068 93.878H615.958C615.994 94.562 616.15 95.132 616.426 95.588C616.714 96.032 617.068 96.368 617.488 96.596C617.92 96.824 618.376 96.938 618.856 96.938C619.48 96.938 620.002 96.794 620.422 96.506C620.842 96.218 621.148 95.828 621.34 95.336H622.834C622.594 96.164 622.132 96.854 621.448 97.406C620.776 97.946 619.912 98.216 618.856 98.216ZM618.856 90.134C618.136 90.134 617.494 90.356 616.93 90.8C616.378 91.232 616.06 91.868 615.976 92.708H621.592C621.556 91.904 621.28 91.274 620.764 90.818C620.248 90.362 619.612 90.134 618.856 90.134ZM625.09 98V89.072H626.458L626.584 90.782C626.86 90.194 627.28 89.726 627.844 89.378C628.408 89.03 629.104 88.856 629.932 88.856V90.44H629.518C628.99 90.44 628.504 90.536 628.06 90.728C627.616 90.908 627.262 91.22 626.998 91.664C626.734 92.108 626.602 92.72 626.602 93.5V98H625.09ZM635.309 98.216C634.457 98.216 633.701 98.024 633.041 97.64C632.381 97.244 631.859 96.698 631.475 96.002C631.103 95.306 630.917 94.484 630.917 93.536C630.917 92.6 631.103 91.784 631.475 91.088C631.847 90.38 632.363 89.834 633.023 89.45C633.695 89.054 634.469 88.856 635.345 88.856C636.209 88.856 636.953 89.054 637.577 89.45C638.213 89.834 638.699 90.344 639.035 90.98C639.371 91.616 639.539 92.3 639.539 93.032C639.539 93.164 639.533 93.296 639.521 93.428C639.521 93.56 639.521 93.71 639.521 93.878H632.411C632.447 94.562 632.603 95.132 632.879 95.588C633.167 96.032 633.521 96.368 633.941 96.596C634.373 96.824 634.829 96.938 635.309 96.938C635.933 96.938 636.455 96.794 636.875 96.506C637.295 96.218 637.601 95.828 637.793 95.336H639.287C639.047 96.164 638.585 96.854 637.901 97.406C637.229 97.946 636.365 98.216 635.309 98.216ZM635.309 90.134C634.589 90.134 633.947 90.356 633.383 90.8C632.831 91.232 632.513 91.868 632.429 92.708H638.045C638.009 91.904 637.733 91.274 637.217 90.818C636.701 90.362 636.065 90.134 635.309 90.134ZM646.396 98V85.4H647.908V96.794H653.776V98H646.396ZM658.733 98.216C657.989 98.216 657.371 98.09 656.879 97.838C656.387 97.586 656.021 97.25 655.781 96.83C655.541 96.41 655.421 95.954 655.421 95.462C655.421 94.55 655.769 93.848 656.465 93.356C657.161 92.864 658.109 92.618 659.309 92.618H661.721V92.51C661.721 91.73 661.517 91.142 661.109 90.746C660.701 90.338 660.155 90.134 659.471 90.134C658.883 90.134 658.373 90.284 657.941 90.584C657.521 90.872 657.257 91.298 657.149 91.862H655.601C655.661 91.214 655.877 90.668 656.249 90.224C656.633 89.78 657.107 89.444 657.671 89.216C658.235 88.976 658.835 88.856 659.471 88.856C660.719 88.856 661.655 89.192 662.279 89.864C662.915 90.524 663.233 91.406 663.233 92.51V98H661.883L661.793 96.398C661.541 96.902 661.169 97.334 660.677 97.694C660.197 98.042 659.549 98.216 658.733 98.216ZM658.967 96.938C659.543 96.938 660.035 96.788 660.443 96.488C660.863 96.188 661.181 95.798 661.397 95.318C661.613 94.838 661.721 94.334 661.721 93.806V93.788H659.435C658.547 93.788 657.917 93.944 657.545 94.256C657.185 94.556 657.005 94.934 657.005 95.39C657.005 95.858 657.173 96.236 657.509 96.524C657.857 96.8 658.343 96.938 658.967 96.938ZM665.502 98V89.072H666.87L666.96 90.674C667.248 90.11 667.662 89.666 668.202 89.342C668.742 89.018 669.354 88.856 670.038 88.856C671.094 88.856 671.934 89.18 672.558 89.828C673.194 90.464 673.512 91.448 673.512 92.78V98H672V92.942C672 91.082 671.232 90.152 669.696 90.152C668.928 90.152 668.286 90.434 667.77 90.998C667.266 91.55 667.014 92.342 667.014 93.374V98H665.502ZM679.853 98.216C678.965 98.216 678.185 98.012 677.513 97.604C676.853 97.196 676.337 96.638 675.965 95.93C675.605 95.222 675.425 94.418 675.425 93.518C675.425 92.618 675.611 91.82 675.983 91.124C676.355 90.416 676.871 89.864 677.531 89.468C678.191 89.06 678.971 88.856 679.871 88.856C680.603 88.856 681.251 89.006 681.815 89.306C682.379 89.606 682.817 90.026 683.129 90.566V85.04H684.641V98H683.273L683.129 96.524C682.841 96.956 682.427 97.346 681.887 97.694C681.347 98.042 680.669 98.216 679.853 98.216ZM680.015 96.902C680.615 96.902 681.143 96.764 681.599 96.488C682.067 96.2 682.427 95.804 682.679 95.3C682.943 94.796 683.075 94.208 683.075 93.536C683.075 92.864 682.943 92.276 682.679 91.772C682.427 91.268 682.067 90.878 681.599 90.602C681.143 90.314 680.615 90.17 680.015 90.17C679.427 90.17 678.899 90.314 678.431 90.602C677.975 90.878 677.615 91.268 677.351 91.772C677.099 92.276 676.973 92.864 676.973 93.536C676.973 94.208 677.099 94.796 677.351 95.3C677.615 95.804 677.975 96.2 678.431 96.488C678.899 96.764 679.427 96.902 680.015 96.902ZM685.899 100.142L686.943 96.164H688.509L686.943 100.142H685.899ZM695.158 98V85.4H696.67V96.794H702.538V98H695.158ZM703.823 98L708.467 85.4H710.069L714.695 98H713.093L711.941 94.76H706.577L705.407 98H703.823ZM707.027 93.536H711.491L709.259 87.308L707.027 93.536ZM722.574 98V87.092L720.54 87.542V86.498L723.078 85.4H724.104V98H722.574ZM726.566 98V96.938C727.418 96.266 728.222 95.588 728.978 94.904C729.746 94.208 730.424 93.524 731.012 92.852C731.612 92.18 732.08 91.52 732.416 90.872C732.764 90.224 732.938 89.6 732.938 89C732.938 88.556 732.86 88.142 732.704 87.758C732.56 87.374 732.32 87.068 731.984 86.84C731.648 86.6 731.192 86.48 730.616 86.48C730.064 86.48 729.602 86.606 729.23 86.858C728.858 87.098 728.576 87.422 728.384 87.83C728.204 88.238 728.114 88.676 728.114 89.144H726.656C726.656 88.316 726.83 87.608 727.178 87.02C727.526 86.42 728 85.964 728.6 85.652C729.2 85.34 729.878 85.184 730.634 85.184C731.75 85.184 732.662 85.502 733.37 86.138C734.09 86.762 734.45 87.698 734.45 88.946C734.45 89.69 734.264 90.428 733.892 91.16C733.52 91.88 733.046 92.582 732.47 93.266C731.894 93.938 731.276 94.568 730.616 95.156C729.968 95.744 729.362 96.272 728.798 96.74H734.882V98H726.566ZM740.988 98.216C740.184 98.216 739.458 98.072 738.81 97.784C738.162 97.484 737.64 97.04 737.244 96.452C736.86 95.864 736.656 95.132 736.632 94.256H738.162C738.174 94.976 738.426 95.6 738.918 96.128C739.41 96.644 740.1 96.902 740.988 96.902C741.876 96.902 742.542 96.656 742.986 96.164C743.442 95.672 743.67 95.078 743.67 94.382C743.67 93.794 743.526 93.314 743.238 92.942C742.962 92.57 742.584 92.294 742.104 92.114C741.636 91.934 741.12 91.844 740.556 91.844H739.62V90.566H740.556C741.372 90.566 742.008 90.38 742.464 90.008C742.932 89.636 743.166 89.114 743.166 88.442C743.166 87.878 742.98 87.416 742.608 87.056C742.248 86.684 741.708 86.498 740.988 86.498C740.292 86.498 739.734 86.708 739.314 87.128C738.894 87.536 738.66 88.052 738.612 88.676H737.082C737.118 87.992 737.298 87.386 737.622 86.858C737.958 86.33 738.414 85.922 738.99 85.634C739.566 85.334 740.232 85.184 740.988 85.184C741.804 85.184 742.482 85.328 743.022 85.616C743.574 85.904 743.988 86.288 744.264 86.768C744.552 87.248 744.696 87.776 744.696 88.352C744.696 88.988 744.522 89.57 744.174 90.098C743.826 90.614 743.304 90.962 742.608 91.142C743.352 91.298 743.97 91.652 744.462 92.204C744.954 92.756 745.2 93.482 745.2 94.382C745.2 95.078 745.038 95.72 744.714 96.308C744.402 96.884 743.934 97.346 743.31 97.694C742.686 98.042 741.912 98.216 740.988 98.216ZM753.352 98V95.3H746.962V94.13L753.082 85.4H754.846V93.968H756.718V95.3H754.846V98H753.352ZM748.636 93.968H753.424V87.074L748.636 93.968ZM762.829 98.216C761.965 98.216 761.215 98.06 760.579 97.748C759.943 97.436 759.433 97.01 759.049 96.47C758.677 95.918 758.449 95.294 758.365 94.598H759.841C759.985 95.294 760.321 95.858 760.849 96.29C761.377 96.71 762.043 96.92 762.847 96.92C763.447 96.92 763.963 96.782 764.395 96.506C764.827 96.218 765.157 95.834 765.385 95.354C765.625 94.874 765.745 94.34 765.745 93.752C765.745 92.816 765.481 92.06 764.953 91.484C764.425 90.908 763.741 90.62 762.901 90.62C762.205 90.62 761.611 90.776 761.119 91.088C760.627 91.4 760.267 91.808 760.039 92.312H758.599L759.679 85.4H766.285V86.714H760.849L760.111 90.548C760.399 90.2 760.795 89.912 761.299 89.684C761.815 89.456 762.403 89.342 763.063 89.342C763.891 89.342 764.611 89.534 765.223 89.918C765.847 90.302 766.333 90.824 766.681 91.484C767.029 92.144 767.203 92.894 767.203 93.734C767.203 94.538 767.029 95.282 766.681 95.966C766.345 96.65 765.847 97.196 765.187 97.604C764.539 98.012 763.753 98.216 762.829 98.216ZM572.886 126.216C572.022 126.216 571.236 126.048 570.528 125.712C569.832 125.364 569.274 124.83 568.854 124.11C568.434 123.39 568.224 122.472 568.224 121.356V113.4H569.736V121.374C569.736 122.598 570.03 123.486 570.618 124.038C571.206 124.59 571.974 124.866 572.922 124.866C573.87 124.866 574.632 124.59 575.208 124.038C575.784 123.486 576.072 122.598 576.072 121.374V113.4H577.584V121.356C577.584 122.472 577.374 123.39 576.954 124.11C576.534 124.83 575.97 125.364 575.262 125.712C574.554 126.048 573.762 126.216 572.886 126.216ZM580.055 126V117.072H581.423L581.513 118.674C581.801 118.11 582.215 117.666 582.755 117.342C583.295 117.018 583.907 116.856 584.591 116.856C585.647 116.856 586.487 117.18 587.111 117.828C587.747 118.464 588.064 119.448 588.064 120.78V126H586.553V120.942C586.553 119.082 585.785 118.152 584.249 118.152C583.481 118.152 582.839 118.434 582.323 118.998C581.819 119.55 581.567 120.342 581.567 121.374V126H580.055ZM591.273 115.092C590.973 115.092 590.721 114.996 590.517 114.804C590.325 114.6 590.229 114.348 590.229 114.048C590.229 113.76 590.325 113.52 590.517 113.328C590.721 113.136 590.973 113.04 591.273 113.04C591.561 113.04 591.807 113.136 592.011 113.328C592.215 113.52 592.317 113.76 592.317 114.048C592.317 114.348 592.215 114.6 592.011 114.804C591.807 114.996 591.561 115.092 591.273 115.092ZM590.517 126V117.072H592.029V126H590.517ZM598.19 126C597.374 126 596.732 125.802 596.264 125.406C595.796 125.01 595.562 124.296 595.562 123.264V118.35H594.014V117.072H595.562L595.76 114.93H597.074V117.072H599.702V118.35H597.074V123.264C597.074 123.828 597.188 124.212 597.416 124.416C597.644 124.608 598.046 124.704 598.622 124.704H599.558V126H598.19ZM605.391 126.216C604.539 126.216 603.783 126.024 603.123 125.64C602.463 125.244 601.941 124.698 601.557 124.002C601.185 123.306 600.999 122.484 600.999 121.536C600.999 120.6 601.185 119.784 601.557 119.088C601.929 118.38 602.445 117.834 603.105 117.45C603.777 117.054 604.551 116.856 605.427 116.856C606.291 116.856 607.035 117.054 607.659 117.45C608.295 117.834 608.781 118.344 609.117 118.98C609.453 119.616 609.621 120.3 609.621 121.032C609.621 121.164 609.615 121.296 609.603 121.428C609.603 121.56 609.603 121.71 609.603 121.878H602.493C602.529 122.562 602.685 123.132 602.961 123.588C603.249 124.032 603.603 124.368 604.023 124.596C604.455 124.824 604.911 124.938 605.391 124.938C606.015 124.938 606.537 124.794 606.957 124.506C607.377 124.218 607.683 123.828 607.875 123.336H609.369C609.129 124.164 608.667 124.854 607.983 125.406C607.311 125.946 606.447 126.216 605.391 126.216ZM605.391 118.134C604.671 118.134 604.029 118.356 603.465 118.8C602.913 119.232 602.595 119.868 602.511 120.708H608.127C608.091 119.904 607.815 119.274 607.299 118.818C606.783 118.362 606.147 118.134 605.391 118.134ZM615.675 126.216C614.787 126.216 614.007 126.012 613.335 125.604C612.675 125.196 612.159 124.638 611.787 123.93C611.427 123.222 611.247 122.418 611.247 121.518C611.247 120.618 611.433 119.82 611.805 119.124C612.177 118.416 612.693 117.864 613.353 117.468C614.013 117.06 614.793 116.856 615.693 116.856C616.425 116.856 617.073 117.006 617.637 117.306C618.201 117.606 618.639 118.026 618.951 118.566V113.04H620.463V126H619.095L618.951 124.524C618.663 124.956 618.249 125.346 617.709 125.694C617.169 126.042 616.491 126.216 615.675 126.216ZM615.837 124.902C616.437 124.902 616.965 124.764 617.421 124.488C617.889 124.2 618.249 123.804 618.501 123.3C618.765 122.796 618.897 122.208 618.897 121.536C618.897 120.864 618.765 120.276 618.501 119.772C618.249 119.268 617.889 118.878 617.421 118.602C616.965 118.314 616.437 118.17 615.837 118.17C615.249 118.17 614.721 118.314 614.253 118.602C613.797 118.878 613.437 119.268 613.173 119.772C612.921 120.276 612.795 120.864 612.795 121.536C612.795 122.208 612.921 122.796 613.173 123.3C613.437 123.804 613.797 124.2 614.253 124.488C614.721 124.764 615.249 124.902 615.837 124.902ZM631.795 126.216C630.871 126.216 630.067 126.048 629.383 125.712C628.699 125.376 628.171 124.908 627.799 124.308C627.427 123.708 627.241 123.012 627.241 122.22H628.825C628.825 122.712 628.939 123.168 629.167 123.588C629.395 123.996 629.725 124.326 630.157 124.578C630.601 124.818 631.147 124.938 631.795 124.938C632.647 124.938 633.307 124.734 633.775 124.326C634.243 123.918 634.477 123.408 634.477 122.796C634.477 122.292 634.369 121.89 634.153 121.59C633.937 121.278 633.643 121.026 633.271 120.834C632.911 120.642 632.491 120.474 632.011 120.33C631.543 120.186 631.051 120.024 630.535 119.844C629.563 119.508 628.843 119.094 628.375 118.602C627.907 118.098 627.673 117.444 627.673 116.64C627.661 115.968 627.817 115.374 628.141 114.858C628.465 114.33 628.921 113.922 629.509 113.634C630.109 113.334 630.817 113.184 631.633 113.184C632.437 113.184 633.133 113.334 633.721 113.634C634.321 113.934 634.783 114.348 635.107 114.876C635.443 115.404 635.617 116.004 635.629 116.676H634.045C634.045 116.328 633.955 115.986 633.775 115.65C633.595 115.302 633.319 115.02 632.947 114.804C632.587 114.588 632.131 114.48 631.579 114.48C630.895 114.468 630.331 114.642 629.887 115.002C629.455 115.362 629.239 115.86 629.239 116.496C629.239 117.036 629.389 117.45 629.689 117.738C630.001 118.026 630.433 118.266 630.985 118.458C631.537 118.638 632.173 118.848 632.893 119.088C633.493 119.304 634.033 119.556 634.513 119.844C634.993 120.132 635.365 120.504 635.629 120.96C635.905 121.416 636.043 121.998 636.043 122.706C636.043 123.306 635.887 123.876 635.575 124.416C635.263 124.944 634.789 125.376 634.153 125.712C633.529 126.048 632.743 126.216 631.795 126.216ZM641.625 126C640.809 126 640.167 125.802 639.699 125.406C639.231 125.01 638.997 124.296 638.997 123.264V118.35H637.449V117.072H638.997L639.195 114.93H640.509V117.072H643.137V118.35H640.509V123.264C640.509 123.828 640.623 124.212 640.851 124.416C641.079 124.608 641.481 124.704 642.057 124.704H642.993V126H641.625ZM648.028 126.216C647.284 126.216 646.666 126.09 646.174 125.838C645.682 125.586 645.316 125.25 645.076 124.83C644.836 124.41 644.716 123.954 644.716 123.462C644.716 122.55 645.064 121.848 645.76 121.356C646.456 120.864 647.404 120.618 648.604 120.618H651.016V120.51C651.016 119.73 650.812 119.142 650.404 118.746C649.996 118.338 649.45 118.134 648.766 118.134C648.178 118.134 647.668 118.284 647.236 118.584C646.816 118.872 646.552 119.298 646.444 119.862H644.896C644.956 119.214 645.172 118.668 645.544 118.224C645.928 117.78 646.402 117.444 646.966 117.216C647.53 116.976 648.13 116.856 648.766 116.856C650.014 116.856 650.95 117.192 651.574 117.864C652.21 118.524 652.528 119.406 652.528 120.51V126H651.178L651.088 124.398C650.836 124.902 650.464 125.334 649.972 125.694C649.492 126.042 648.844 126.216 648.028 126.216ZM648.262 124.938C648.838 124.938 649.33 124.788 649.738 124.488C650.158 124.188 650.476 123.798 650.692 123.318C650.908 122.838 651.016 122.334 651.016 121.806V121.788H648.73C647.842 121.788 647.212 121.944 646.84 122.256C646.48 122.556 646.3 122.934 646.3 123.39C646.3 123.858 646.468 124.236 646.804 124.524C647.152 124.8 647.638 124.938 648.262 124.938ZM658.079 126C657.263 126 656.621 125.802 656.153 125.406C655.685 125.01 655.451 124.296 655.451 123.264V118.35H653.903V117.072H655.451L655.649 114.93H656.963V117.072H659.591V118.35H656.963V123.264C656.963 123.828 657.077 124.212 657.305 124.416C657.533 124.608 657.935 124.704 658.511 124.704H659.447V126H658.079ZM665.279 126.216C664.427 126.216 663.671 126.024 663.011 125.64C662.351 125.244 661.829 124.698 661.445 124.002C661.073 123.306 660.887 122.484 660.887 121.536C660.887 120.6 661.073 119.784 661.445 119.088C661.817 118.38 662.333 117.834 662.993 117.45C663.665 117.054 664.439 116.856 665.315 116.856C666.179 116.856 666.923 117.054 667.547 117.45C668.183 117.834 668.669 118.344 669.005 118.98C669.341 119.616 669.509 120.3 669.509 121.032C669.509 121.164 669.503 121.296 669.491 121.428C669.491 121.56 669.491 121.71 669.491 121.878H662.381C662.417 122.562 662.573 123.132 662.849 123.588C663.137 124.032 663.491 124.368 663.911 124.596C664.343 124.824 664.799 124.938 665.279 124.938C665.903 124.938 666.425 124.794 666.845 124.506C667.265 124.218 667.571 123.828 667.763 123.336H669.257C669.017 124.164 668.555 124.854 667.871 125.406C667.199 125.946 666.335 126.216 665.279 126.216ZM665.279 118.134C664.559 118.134 663.917 118.356 663.353 118.8C662.801 119.232 662.483 119.868 662.399 120.708H668.015C667.979 119.904 667.703 119.274 667.187 118.818C666.671 118.362 666.035 118.134 665.279 118.134ZM674.933 126.216C673.865 126.216 672.977 125.946 672.269 125.406C671.561 124.866 671.147 124.134 671.027 123.21H672.575C672.671 123.678 672.917 124.086 673.313 124.434C673.721 124.77 674.267 124.938 674.951 124.938C675.587 124.938 676.055 124.806 676.355 124.542C676.655 124.266 676.805 123.942 676.805 123.57C676.805 123.03 676.607 122.67 676.211 122.49C675.827 122.31 675.281 122.148 674.573 122.004C674.093 121.908 673.613 121.77 673.133 121.59C672.653 121.41 672.251 121.158 671.927 120.834C671.603 120.498 671.441 120.06 671.441 119.52C671.441 118.74 671.729 118.104 672.305 117.612C672.893 117.108 673.685 116.856 674.681 116.856C675.629 116.856 676.403 117.096 677.003 117.576C677.615 118.044 677.969 118.716 678.065 119.592H676.571C676.511 119.136 676.313 118.782 675.977 118.53C675.653 118.266 675.215 118.134 674.663 118.134C674.123 118.134 673.703 118.248 673.403 118.476C673.115 118.704 672.971 119.004 672.971 119.376C672.971 119.736 673.157 120.018 673.529 120.222C673.913 120.426 674.429 120.6 675.077 120.744C675.629 120.864 676.151 121.014 676.643 121.194C677.147 121.362 677.555 121.62 677.867 121.968C678.191 122.304 678.353 122.796 678.353 123.444C678.365 124.248 678.059 124.914 677.435 125.442C676.823 125.958 675.989 126.216 674.933 126.216Z" fill="#2C2F24"/>
</svg>
